<?xml version="1.0" encoding="utf-8"?>
<!-- Generator: Adobe Illustrator 25.3.1, SVG Export Plug-In . SVG Version: 6.00 Build 0)  -->
<svg version="1.1" id="Layer_1" xmlns="http://www.w3.org/2000/svg" xmlns:xlink="http://www.w3.org/1999/xlink" x="0px" y="0px"
	 viewBox="0 0 122 28" style="enable-background:new 0 0 122 28;" xml:space="preserve">
<style type="text/css">
	.st0{fill:#FFFFFF;}
	.st1{fill-rule:evenodd;clip-rule:evenodd;fill:#FFFFFF;}
</style>
<desc>Created with Sketch.</desc>
<g id="页面-1">
	<g id="kucoin-logo" transform="translate(32.000000, 12.000000)">
		<g id="KUCOIN-logo-3.0" transform="translate(14.000000, 14.000000)">
			<path id="形状" class="st0" d="M49.8-12c0-0.7,0-1.4,0-2c0-0.6-0.1-1.2-0.2-1.7c-0.1-0.5-0.3-1-0.5-1.5c-0.2-0.5-0.6-0.9-1-1.3
				c-0.6-0.6-1.2-1-2-1.4c-0.8-0.3-1.6-0.5-2.5-0.5c-0.9,0-1.7,0.1-2.5,0.5c-0.7,0.3-1.4,0.8-2,1.3c-0.4,0.4-0.7,0.8-1,1.3
				c-0.2,0.5-0.4,1-0.5,1.5c-0.1,0.6-0.2,1.2-0.2,1.7c0,0.6,0,1.3,0,2s0,1.4,0,2c0,0.6,0.1,1.2,0.2,1.7c0.1,0.5,0.3,1,0.5,1.5
				c0.2,0.5,0.6,0.9,1,1.3c0.6,0.6,1.2,1,2,1.3c0.8,0.3,1.7,0.5,2.5,0.5c0.9,0,1.7-0.1,2.5-0.5c0.7-0.3,1.4-0.8,2-1.3
				c0.4-0.4,0.7-0.8,1-1.3c0.2-0.5,0.4-1,0.5-1.5c0.1-0.6,0.2-1.2,0.2-1.7C49.8-10.6,49.8-11.3,49.8-12L49.8-12z M46.5-12
				c0,0.8,0,1.5,0,2c0,0.4-0.1,0.9-0.1,1.3c0,0.3-0.1,0.6-0.3,0.8c-0.1,0.2-0.2,0.4-0.4,0.6c-0.2,0.3-0.5,0.5-0.9,0.6
				c-0.4,0.2-0.8,0.2-1.2,0.2c-0.4,0-0.8-0.1-1.2-0.2c-0.3-0.1-0.7-0.4-0.9-0.6c-0.2-0.2-0.3-0.4-0.4-0.6C41-8.2,41-8.5,40.9-8.7
				c-0.1-0.4-0.1-0.9-0.1-1.3c0-0.5,0-1.2,0-2c0-0.8,0-1.5,0-2c0-0.4,0.1-0.9,0.1-1.3c0-0.3,0.1-0.6,0.2-0.8
				c0.1-0.2,0.2-0.4,0.4-0.6c0.2-0.3,0.6-0.5,0.9-0.6c0.4-0.2,0.8-0.2,1.2-0.2c0.4,0,0.8,0.1,1.2,0.2c0.3,0.1,0.6,0.4,0.9,0.6
				c0.2,0.2,0.3,0.4,0.4,0.6c0.1,0.3,0.2,0.5,0.3,0.8c0.1,0.4,0.1,0.9,0.1,1.3C46.5-13.4,46.5-12.8,46.5-12z"/>
			<path id="路径" class="st0" d="M75.6-20c0-0.2-0.1-0.3-0.3-0.3h-2.7c-0.2,0-0.3,0.1-0.3,0.3v9.9l-6.5-10.1
				c0-0.1-0.1-0.1-0.2-0.1h-2.5c-0.2,0-0.3,0.1-0.3,0.3v16c0,0.2,0.1,0.3,0.3,0.3h2.7c0.2,0,0.3-0.1,0.3-0.3v-9.9l6.5,10.1
				c0,0.1,0.1,0.1,0.2,0.1h2.5c0.2,0,0.3-0.1,0.3-0.3L75.6-20z"/>
			<path id="路径_1_" class="st0" d="M57.7-20c0-0.2-0.1-0.3-0.3-0.3h-2.7c-0.2,0-0.3,0.1-0.3,0.3v16c0,0.2,0.1,0.3,0.3,0.3h2.7
				c0.2,0,0.3-0.1,0.3-0.3V-20z"/>
			<path id="路径_2_" class="st0" d="M25.7-12c0-0.8,0-1.5,0-2c0-0.4,0.1-0.9,0.1-1.3c0.2-1.4,1.3-2.3,2.7-2.3
				c0.9,0,1.7,0.3,2.3,1.1c0.2,0.4,0.4,0.8,0.5,1.2c0,0,0,0.1,0.1,0.1h3.1c0,0,0.1,0,0.1-0.1c-0.3-1.9-1.4-3.7-3.2-4.6
				c-0.9-0.4-1.9-0.6-2.9-0.6c-1.8,0-3.3,0.6-4.5,1.8c-0.7,0.7-1.2,1.5-1.4,2.5c-0.2,0.9-0.3,2.3-0.3,4.1c0,1.8,0.1,3.2,0.3,4.1
				c0.2,0.9,0.7,1.8,1.3,2.5c1.2,1.2,2.7,1.8,4.5,1.8c1,0,2-0.2,2.9-0.6c1.8-0.9,2.9-2.6,3.2-4.6c0,0,0-0.1-0.1-0.1h-3.1
				c0,0-0.1,0-0.1,0.1c-0.1,0.4-0.3,0.8-0.5,1.2c-0.5,0.8-1.4,1.1-2.3,1.1c-1.4,0-2.5-0.8-2.7-2.3c-0.1-0.4-0.1-0.9-0.1-1.3
				C25.7-10.5,25.7-11.2,25.7-12z"/>
			<path id="路径_3_" class="st0" d="M-7.4-20c0-0.2-0.1-0.3-0.3-0.3h-2.7c-0.2,0-0.3,0.1-0.3,0.3v16c0,0.2,0.1,0.3,0.3,0.3h2.7
				c0.2,0,0.3-0.1,0.3-0.3v-4.7l2.1-2.6l4.4,7.5c0,0.1,0.1,0.1,0.2,0.1h3.2c0.1,0,0.2-0.1,0.1-0.2l-5.8-9.8L2.1-20
				c0.1-0.1,0.1-0.3-0.1-0.3h-3.5c0,0-0.1,0-0.1,0.1l-5.8,7V-20z"/>
			<path id="路径_4_" class="st0" d="M12-6.5c-1.5,0-2.9-1.4-2.9-3V-20c0-0.2-0.1-0.3-0.3-0.3H6.2c-0.2,0-0.3,0.1-0.3,0.3v10.5
				c0,3.7,2.7,6,6.1,6c3.4,0,6.1-2.3,6.1-6V-20c0-0.2-0.1-0.3-0.3-0.3h-2.7c-0.2,0-0.3,0.1-0.3,0.3v10.5C14.9-7.8,13.5-6.5,12-6.5z"
				/>
			<path id="形状_1_" class="st1" d="M-37.5-12l8.3,8.3l5.2-5.2c0.9-0.8,2.4-0.8,3.3,0.1c0.9,0.9,0.9,2.3,0.1,3.3l-6.9,6.9
				c-0.9,0.9-2.4,0.9-3.3,0l-10-10v5.9c0,1.3-1.1,2.4-2.4,2.4c-1.3,0-2.4-1.1-2.4-2.4v-18.5c0-1.3,1.1-2.4,2.4-2.4
				c1.3,0,2.4,1.1,2.4,2.4v5.9l10-10c0.9-0.9,2.4-0.9,3.3,0l6.9,6.9c0.8,0.9,0.8,2.4-0.1,3.3c-0.9,0.9-2.3,0.9-3.3,0.1l-5.2-5.2
				L-37.5-12z M-29.2-14.4L-29.2-14.4c-1,0-1.8,0.6-2.2,1.5c-0.4,0.9-0.2,1.9,0.5,2.6c0.7,0.7,1.7,0.9,2.6,0.5
				c0.9-0.4,1.5-1.2,1.5-2.2c0-0.6-0.2-1.2-0.7-1.7C-28-14.1-28.6-14.4-29.2-14.4L-29.2-14.4z"/>
		</g>
	</g>
</g>
</svg>
