<?xml version="1.0" encoding="utf-8"?>
<!-- Generator: Adobe Illustrator 25.3.1, SVG Export Plug-In . SVG Version: 6.00 Build 0)  -->
<svg version="1.1" id="Layer_1" xmlns="http://www.w3.org/2000/svg" xmlns:xlink="http://www.w3.org/1999/xlink" x="0px" y="0px"
	 viewBox="0 0 2500 884.5" style="enable-background:new 0 0 2500 884.5;" xml:space="preserve">
<style type="text/css">
	.st0{fill:#FFFFFF;}
	.st1{fill:#88BDF3;}
	.st2{fill:#3075EE;}
	.st3{fill:#5795F1;}
	.st4{fill:#205FEC;}
	.st5{fill:#134BEF;}
	.st6{fill:#0932E8;}
	.st7{fill:#164BEA;}
	.st8{fill:#3170F1;}
</style>
<path class="st0" d="M1404.8,441.4c0,29.6-4.6,57.6-14.2,83.4c-9.6,26.3-22.9,48.8-40.9,68.4c-17.9,19.6-39.6,35-65.9,46.7
	s-55.9,17.1-89.3,17.1s-63-5.8-89.3-17.1c-26.3-11.7-48-27.1-65.9-46.7s-31.7-42.6-40.9-68.4c-9.2-26.3-13.8-53.8-13.8-83.4
	c0-29.2,4.6-57.2,13.8-83.4s22.9-49.2,40.9-68.8c17.9-19.6,40.1-35,65.9-46.7c26.3-11.7,55.9-17.1,89.3-17.1s63,5.8,89.3,17.1
	c26.3,11.7,48,27.1,65.9,46.7s31.3,42.6,40.9,68.8S1404.8,412.2,1404.8,441.4z M1194.9,588.7c20.4,0,38.4-3.8,53.4-11.3
	c15.4-7.5,28-17.9,38.4-30.9c10.4-13.4,17.9-28.8,22.9-46.7s7.5-37.6,7.5-58.4s-2.5-40.5-7.5-58.4s-12.5-33.4-22.9-46.7
	c-10.4-13.4-22.9-23.4-38.4-30.9c-15.4-7.5-33-11.3-53.4-11.3s-38.4,3.8-53.4,11.3c-15.4,7.5-28,17.9-38.4,30.9
	c-10.4,13.4-17.9,28.8-22.9,46.7s-7.5,37.6-7.5,58.4s2.5,40.5,7.5,58.4c5,17.9,12.5,33.4,22.9,46.7c10.4,13.4,22.9,23.4,38.4,30.9
	C1156.5,584.9,1174.5,588.7,1194.9,588.7z M1459.9,650V232.8h87.6v200.3l144.8-200.3h101.4l-153.5,206.1l164,211.1h-108.5
	l-148.5-204.9V650H1459.9z M1839.1,232.8h250.8v69.7h-162.7v101h155.2v69.3h-155.2v107.6H2092V650h-252.4V232.8L1839.1,232.8z
	 M2402.4,232.8h95.1l-137.3,207.4L2500,650h-96l-90.1-142.3L2223.8,650h-96l139.8-209.9l-137.3-207.4h95.1l88.5,141L2402.4,232.8z"
	/>
<circle class="st1" cx="442.3" cy="200.3" r="200.3"/>
<circle class="st2" cx="442.3" cy="684.2" r="200.3"/>
<circle class="st3" cx="684.2" cy="442.3" r="200.3"/>
<circle class="st4" cx="200.3" cy="442.3" r="200.3"/>
<path class="st5" d="M395.1,395.1c-72.6-17.5-129.8-74.7-147.3-147.3C320,265.4,377.2,322.5,395.1,395.1z"/>
<path class="st6" d="M247.4,637.1c17.5-72.6,74.7-129.8,147.3-147.3C377.2,562,320,619.2,247.4,637.1L247.4,637.1z"/>
<path class="st7" d="M489.4,489.4c72.6,17.5,129.8,74.7,147.3,147.3C564.5,619.2,507.3,562,489.4,489.4L489.4,489.4z"/>
<path class="st8" d="M637.1,247.4c-17.5,72.6-74.7,129.8-147.3,147.3C507.3,322.5,564.5,265.4,637.1,247.4L637.1,247.4z"/>
</svg>
