<svg xmlns="http://www.w3.org/2000/svg" xmlns:xlink="http://www.w3.org/1999/xlink" viewBox="0 0 136.52 28.9"><defs><linearGradient id="linear-gradient" x1="42.86" y1="-13419.61" x2="42.86" y2="-13448.41" gradientTransform="matrix(1, 0, 0, -1, 0, -13422.4)" gradientUnits="userSpaceOnUse"><stop offset="0.11" stop-color="#e6e6e6"/><stop offset="1"/></linearGradient><linearGradient id="linear-gradient-2" x1="55.17" y1="-13419.61" x2="55.17" y2="-13448.41" xlink:href="#linear-gradient"/><linearGradient id="linear-gradient-3" x1="69.75" y1="-13419.61" x2="69.75" y2="-13448.41" xlink:href="#linear-gradient"/><linearGradient id="linear-gradient-4" x1="81.95" y1="-13419.61" x2="81.95" y2="-13448.41" xlink:href="#linear-gradient"/><linearGradient id="linear-gradient-5" x1="94.52" y1="-13419.61" x2="94.52" y2="-13448.41" xlink:href="#linear-gradient"/><linearGradient id="linear-gradient-6" x1="107.68" y1="-13419.61" x2="107.68" y2="-13448.41" xlink:href="#linear-gradient"/><linearGradient id="linear-gradient-7" x1="116.01" y1="-13419.61" x2="116.01" y2="-13448.41" xlink:href="#linear-gradient"/><linearGradient id="linear-gradient-8" x1="125.16" y1="-13419.61" x2="125.16" y2="-13448.41" xlink:href="#linear-gradient"/><linearGradient id="linear-gradient-9" x1="135.01" y1="-13419.61" x2="135.01" y2="-13448.41" xlink:href="#linear-gradient"/><linearGradient id="linear-gradient-10" x1="14.45" y1="-13422.4" x2="14.45" y2="-13451.3" gradientTransform="matrix(1, 0, 0, -1, 0, -13422.4)" gradientUnits="userSpaceOnUse"><stop offset="0" stop-color="gray"/><stop offset="1"/></linearGradient></defs><g id="Layer_2" data-name="Layer 2"><g id="BG"><path d="M42.33,18.72a4.24,4.24,0,0,0,1.76-.27,1.06,1.06,0,0,0,.55-1,1.27,1.27,0,0,0-.6-1.08,8.91,8.91,0,0,0-1.93-.93c-.55-.2-1.06-.41-1.53-.62A6.1,6.1,0,0,1,39.4,14a3.46,3.46,0,0,1-.8-1.08,4.11,4.11,0,0,1-.27-1.58,3.4,3.4,0,0,1,1.32-2.83,5.68,5.68,0,0,1,3.61-1,10.46,10.46,0,0,1,2.2.22A9.59,9.59,0,0,1,47,8.11l-.55,2.45a7,7,0,0,0-1.28-.4,7.33,7.33,0,0,0-1.8-.2,3.09,3.09,0,0,0-1.5.32,1,1,0,0,0-.58,1,1.66,1.66,0,0,0,.1.57,1.6,1.6,0,0,0,.4.48,6.25,6.25,0,0,0,.73.42c.3.14.67.28,1.1.43a15,15,0,0,1,1.83.8,4.31,4.31,0,0,1,1.23.88,2.77,2.77,0,0,1,.72,1.1,4.46,4.46,0,0,1,.23,1.5,3.28,3.28,0,0,1-1.4,2.86,7,7,0,0,1-4,.95,10.46,10.46,0,0,1-2.78-.3,13.85,13.85,0,0,1-1.48-.45L38.58,18a13.13,13.13,0,0,0,1.6.52A8.3,8.3,0,0,0,42.33,18.72Z" style="fill:url(#linear-gradient)"/><path d="M60.62,20.5q-.88.22-2.28.45a17.3,17.3,0,0,1-3.08.25,6.94,6.94,0,0,1-2.66-.45,4.26,4.26,0,0,1-1.7-1.25,4.92,4.92,0,0,1-.9-1.9,10,10,0,0,1-.28-2.46V7.8h3v6.87a5.62,5.62,0,0,0,.6,3,2.45,2.45,0,0,0,2.16.9,11.43,11.43,0,0,0,1.15-.05,5.94,5.94,0,0,0,.93-.12V7.8h3Z" style="fill:url(#linear-gradient-2)"/><path d="M72.54,14.32a5.29,5.29,0,0,0-.78-3.06,2.68,2.68,0,0,0-2.4-1.13,4.51,4.51,0,0,0-1.43.23,4.69,4.69,0,0,0-1.05.5V18.4c.22.05.49.1.83.15s.76.05,1.25.05a3.27,3.27,0,0,0,2.63-1.13A4.83,4.83,0,0,0,72.54,14.32Zm3.11,0a8,8,0,0,1-.48,2.85,5.9,5.9,0,0,1-1.33,2.16,5.44,5.44,0,0,1-2.08,1.37,7.54,7.54,0,0,1-2.78.48A17.87,17.87,0,0,1,66.1,21a16.88,16.88,0,0,1-2.25-.5V2l3-.5V8.26a6.81,6.81,0,0,1,1.28-.51,6,6,0,0,1,1.7-.22,5.76,5.76,0,0,1,2.45.5,4.68,4.68,0,0,1,1.83,1.38,6.32,6.32,0,0,1,1.11,2.18A9.28,9.28,0,0,1,75.65,14.37Z" style="fill:url(#linear-gradient-3)"/><path d="M81.42,18.72a4.24,4.24,0,0,0,1.76-.27,1.06,1.06,0,0,0,.55-1,1.27,1.27,0,0,0-.6-1.08,8.91,8.91,0,0,0-1.93-.93c-.55-.2-1.06-.41-1.53-.62a6.1,6.1,0,0,1-1.18-.8,3.46,3.46,0,0,1-.8-1.08,4.11,4.11,0,0,1-.27-1.58,3.4,3.4,0,0,1,1.32-2.83,5.68,5.68,0,0,1,3.61-1,10.62,10.62,0,0,1,2.21.22,9.7,9.7,0,0,1,1.57.41l-.55,2.45a7,7,0,0,0-1.28-.4,7.33,7.33,0,0,0-1.8-.2,3.09,3.09,0,0,0-1.5.32,1,1,0,0,0-.58,1,1.66,1.66,0,0,0,.1.57,1.6,1.6,0,0,0,.4.48,6.25,6.25,0,0,0,.73.42c.3.14.67.28,1.1.43a15,15,0,0,1,1.83.8,4.31,4.31,0,0,1,1.23.88,2.77,2.77,0,0,1,.72,1.1,4.46,4.46,0,0,1,.23,1.5,3.28,3.28,0,0,1-1.4,2.86,7,7,0,0,1-4,.95,10.46,10.46,0,0,1-2.78-.3,14.65,14.65,0,0,1-1.48-.45L77.67,18a13.13,13.13,0,0,0,1.6.52A8.3,8.3,0,0,0,81.42,18.72Z" style="fill:url(#linear-gradient-4)"/><path d="M100.81,14.34a8.44,8.44,0,0,1-.45,2.83,6.29,6.29,0,0,1-1.28,2.18,5.69,5.69,0,0,1-2,1.4,6.78,6.78,0,0,1-5.11,0,5.71,5.71,0,0,1-2-1.4,6.65,6.65,0,0,1-1.3-2.18,8.44,8.44,0,0,1-.45-2.83,8.22,8.22,0,0,1,.45-2.8A6.65,6.65,0,0,1,90,9.36,5.88,5.88,0,0,1,92,8a6.38,6.38,0,0,1,2.53-.5,6.31,6.31,0,0,1,2.53.5,5.47,5.47,0,0,1,2,1.38,6.27,6.27,0,0,1,1.27,2.18A7.76,7.76,0,0,1,100.81,14.34Zm-3.1,0a5,5,0,0,0-.86-3.08,2.68,2.68,0,0,0-2.33-1.15,2.76,2.76,0,0,0-2.35,1.15,5.12,5.12,0,0,0-.83,3.08,5.28,5.28,0,0,0,.83,3.13,2.76,2.76,0,0,0,2.35,1.15,2.68,2.68,0,0,0,2.33-1.15A5.14,5.14,0,0,0,97.71,14.34Z" style="fill:url(#linear-gradient-5)"/><path d="M102.58,14.37a8,8,0,0,1,.45-2.71,6.57,6.57,0,0,1,1.28-2.2,6,6,0,0,1,2-1.45,6.55,6.55,0,0,1,2.71-.53,9,9,0,0,1,3.5.68l-.65,2.47a6.8,6.8,0,0,0-1.2-.37,6.2,6.2,0,0,0-1.4-.15,3.28,3.28,0,0,0-2.71,1.13,4.75,4.75,0,0,0-.92,3.13,5,5,0,0,0,.87,3.1,3.54,3.54,0,0,0,3,1.13,7.78,7.78,0,0,0,1.53-.15,7.23,7.23,0,0,0,1.3-.38l.42,2.51a6,6,0,0,1-1.52.45,10.87,10.87,0,0,1-2.08.2,7.92,7.92,0,0,1-2.93-.5,5.9,5.9,0,0,1-2.06-1.43,6.24,6.24,0,0,1-1.2-2.18A9.05,9.05,0,0,1,102.58,14.37Z" style="fill:url(#linear-gradient-6)"/><path d="M117.55,20.9h-3V7.8h3ZM117.88,4a1.76,1.76,0,0,1-.56,1.36,1.87,1.87,0,0,1-1.3.5,2,2,0,0,1-1.33-.5A1.78,1.78,0,0,1,114.14,4a1.78,1.78,0,0,1,.55-1.37A1.91,1.91,0,0,1,116,2.09a1.84,1.84,0,0,1,1.3.51A1.75,1.75,0,0,1,117.88,4Z" style="fill:url(#linear-gradient-7)"/><path d="M125.4,18.77a11.39,11.39,0,0,0,2.13-.15V15.27a6,6,0,0,0-.73-.15,6.79,6.79,0,0,0-1-.08,7.37,7.37,0,0,0-1,.08,3.39,3.39,0,0,0-.92.27,1.76,1.76,0,0,0-.66.58,1.55,1.55,0,0,0-.25.9,1.63,1.63,0,0,0,.68,1.5A3.55,3.55,0,0,0,125.4,18.77Zm-.25-11.29a7.47,7.47,0,0,1,2.53.37,4.16,4.16,0,0,1,1.63,1.06,3.75,3.75,0,0,1,.87,1.65,7.31,7.31,0,0,1,.28,2.1V20.6c-.47.1-1.18.22-2.13.35a20.27,20.27,0,0,1-3.18.23A9.67,9.67,0,0,1,123,21a4.62,4.62,0,0,1-1.67-.72,3.61,3.61,0,0,1-1.08-1.3,4.69,4.69,0,0,1-.38-2,4,4,0,0,1,.43-1.91,3.68,3.68,0,0,1,1.2-1.25,4.85,4.85,0,0,1,1.73-.7,9.47,9.47,0,0,1,2.08-.23,12.25,12.25,0,0,1,2.23.28v-.5a3.61,3.61,0,0,0-.13-1,1.82,1.82,0,0,0-.45-.83,1.91,1.91,0,0,0-.83-.58,3.48,3.48,0,0,0-1.27-.2,11.46,11.46,0,0,0-1.93.15,8.79,8.79,0,0,0-1.43.35l-.37-2.45a11.81,11.81,0,0,1,1.67-.4A13.57,13.57,0,0,1,125.15,7.48Z" style="fill:url(#linear-gradient-8)"/><path d="M133.49,20.9V2l3-.5V20.9Z" style="fill:url(#linear-gradient-9)"/><path d="M28.9,14.45A14.45,14.45,0,1,1,14.45,0,14.45,14.45,0,0,1,28.9,14.45ZM14.4,3.08A5.36,5.36,0,0,0,9.05,8.43V11.9a5.35,5.35,0,0,0,5.35,5.34,5.41,5.41,0,0,0,1.21-.13.3.3,0,0,0,.12-.51l0,0-3.08-2.94a2.52,2.52,0,0,1-.77-1.83V8.52a2.55,2.55,0,1,1,5.1,0V9.63a.39.39,0,0,0,.39.39h2a.39.39,0,0,0,.39-.39V8.43A5.36,5.36,0,0,0,14.4,3.08Zm5.35,17.1a5.35,5.35,0,1,1-10.69,0V19a.38.38,0,0,1,.38-.39h2a.38.38,0,0,1,.39.39v1.11a2.55,2.55,0,1,0,5.1,0V16.81A2.52,2.52,0,0,0,16.18,15L13.1,12l0,0a.3.3,0,0,1,.13-.51,5.25,5.25,0,0,1,1.2-.13,5.35,5.35,0,0,1,5.35,5.34Z" style="fill-rule:evenodd;fill:url(#linear-gradient-10)"/></g></g></svg>