<svg xmlns="http://www.w3.org/2000/svg" viewBox="0 0 155.33 14.92"><g id="Layer_2" data-name="Layer 2"><g id="BG"><path d="M26.47.7a.54.54,0,1,1,1.07,0V14.22a.54.54,0,0,1-1.07,0Z" style="fill:#fff"/><path d="M32.59.72a.54.54,0,0,1,.53-.53h.17a.65.65,0,0,1,.53.3l9.73,12.35V.68a.52.52,0,1,1,1,0v13.6a.44.44,0,0,1-.43.45h-.09a.71.71,0,0,1-.53-.35L33.62,1.81V14.24a.51.51,0,0,1-.52.51.51.51,0,0,1-.51-.51Z" style="fill:#fff"/><path d="M53.48,1.24H48.87a.51.51,0,0,1-.5-.5.5.5,0,0,1,.5-.49h10.3a.5.5,0,0,1,.49.49.51.51,0,0,1-.49.5H54.55v13a.54.54,0,0,1-1.07,0Z" style="fill:#fff"/><path d="M63.45,14.13V.78A.54.54,0,0,1,64,.25H73.3a.5.5,0,0,1,.5.49.51.51,0,0,1-.5.5H64.52V6.9h7.85a.5.5,0,1,1,0,1H64.52v5.79H73.4a.5.5,0,1,1,0,1H64A.55.55,0,0,1,63.45,14.13Z" style="fill:#fff"/><path d="M77.24,7.5v0A7.2,7.2,0,0,1,84.37,0a7.55,7.55,0,0,1,4.92,1.61A.54.54,0,0,1,89.5,2a.55.55,0,0,1-.54.54.59.59,0,0,1-.33-.15A6.49,6.49,0,0,0,84.3,1c-3.5,0-6,3-6,6.45v0c0,3.73,2.33,6.51,6.18,6.51a7.38,7.38,0,0,0,4.59-1.65V8.18H84.63a.5.5,0,0,1,0-1h5a.54.54,0,0,1,.53.54v4.71a.85.85,0,0,1-.37.62,8.6,8.6,0,0,1-5.29,1.86C79.94,14.92,77.24,11.56,77.24,7.5Z" style="fill:#fff"/><path d="M94.65.78a.53.53,0,0,1,.53-.53h5.52a5.64,5.64,0,0,1,4.06,1.42,3.81,3.81,0,0,1,1.1,2.68v0c0,2.41-1.8,3.79-4.23,4.12l4.1,5.31a.65.65,0,0,1,.17.38.59.59,0,0,1-.56.55.57.57,0,0,1-.47-.29l-4.43-5.77H95.72v5.53a.55.55,0,0,1-.54.53.54.54,0,0,1-.53-.53Zm5.93,7c2.41,0,4.2-1.22,4.2-3.3v0c0-1.94-1.52-3.15-4.14-3.15H95.72V7.73Z" style="fill:#fff"/><path d="M110.31.7a.54.54,0,0,1,.53-.54.55.55,0,0,1,.54.54V14.22a.55.55,0,0,1-.54.53.54.54,0,0,1-.53-.53Z" style="fill:#fff"/><path d="M120.13,1.75H116a.76.76,0,0,1-.76-.74A.77.77,0,0,1,116,.25h10a.77.77,0,0,1,.77.76.76.76,0,0,1-.77.74h-4.18V14a.83.83,0,0,1-1.65,0Z" style="fill:#fff"/><path d="M130.29,13.84V1.07a.82.82,0,0,1,.81-.82h9a.74.74,0,1,1,0,1.48h-8.14V6.65h7.21a.75.75,0,0,1,.74.75.74.74,0,0,1-.74.74h-7.21v5h8.24a.74.74,0,1,1,0,1.48H131.1A.82.82,0,0,1,130.29,13.84Z" style="fill:#fff"/><path d="M144.71,13.84V1.07a.83.83,0,0,1,.81-.82h9a.74.74,0,1,1,0,1.48h-8.14V6.65h7.21a.76.76,0,0,1,.75.75.74.74,0,0,1-.75.74h-7.21v5h8.24a.74.74,0,1,1,0,1.48h-9.06A.83.83,0,0,1,144.71,13.84Z" style="fill:#fff"/><path d="M17,1.47a.6.6,0,0,0,.6-.6h0a.6.6,0,0,0-.6-.6H.65a.6.6,0,0,0-.6.6h0a.6.6,0,0,0,.6.6H8.2v12.6a.55.55,0,0,0,.55.55h.12a.55.55,0,0,0,.55-.55V1.47Z" style="fill:#fff"/><path d="M6.35,2.68H.6a.61.61,0,0,0-.6.61H0a.6.6,0,0,0,.6.6H5.67V8H1.23a.58.58,0,0,0-.58.57v.06a.58.58,0,0,0,.58.58H5.67V13.4h-5A.61.61,0,0,0,0,14H0a.61.61,0,0,0,.61.6H6.35a.61.61,0,0,0,.54-.32.68.68,0,0,0,.1-.35V3.36A.59.59,0,0,0,6.87,3,.61.61,0,0,0,6.35,2.68Z" style="fill:#fff"/><path d="M17,3.89a.6.6,0,0,0,.6-.6h0a.61.61,0,0,0-.6-.61H11.26a.61.61,0,0,0-.52.31.65.65,0,0,0-.12.37V13.93a.61.61,0,0,0,.11.35.6.6,0,0,0,.53.32H17a.6.6,0,0,0,.6-.6h0a.6.6,0,0,0-.6-.6h-5V9.21h4.45A.58.58,0,0,0,17,8.63V8.57A.58.58,0,0,0,16.39,8H11.94V3.89Z" style="fill:#fff"/></g></g></svg>