<svg xmlns="http://www.w3.org/2000/svg" viewBox="0 0 156.61 24.65"><g id="Layer_2" data-name="Layer 2"><g id="BG"><path id="_0da8ffff" data-name="#0da8ffff" d="M14.62,0a15.39,15.39,0,0,1,7.92,1.6,15.68,15.68,0,0,1,7.8,8.72,15.11,15.11,0,0,1,.92,5.2V22.1a4.41,4.41,0,0,1-.05.81A2.34,2.34,0,0,1,30,24.45a2.29,2.29,0,0,1-1.38.16,2.24,2.24,0,0,1-1.78-2.14V16.36a2.89,2.89,0,0,0-.28-1.7,2.24,2.24,0,0,0-4.18,1v6.19A3.39,3.39,0,0,1,22.22,23a2.26,2.26,0,0,1-1.54,1.52,2.24,2.24,0,0,1-2.53-1,3,3,0,0,1-.29-1.77V15.57a2.23,2.23,0,0,0-3.78-1.51,2.21,2.21,0,0,0-.68,1.62v6a4.15,4.15,0,0,1-.13,1.49,2.18,2.18,0,0,1-2.07,1.46,2.21,2.21,0,0,1-2.14-1.46,3.89,3.89,0,0,1-.13-1.36V15.6a2.24,2.24,0,0,0-4.18-1,2.45,2.45,0,0,0-.28,1.13v6.71a2.27,2.27,0,0,1-.79,1.72,2.28,2.28,0,0,1-2.77.11A2.18,2.18,0,0,1,0,22.44V15.65A15.63,15.63,0,0,1,5.9,3.46,15,15,0,0,1,14.62,0Z" style="fill:#fff"/><path d="M75.65,7.89H72.26c.13-2.37.62-4.51,2.79-5.87A12.66,12.66,0,0,1,86,1.55a5.17,5.17,0,0,1,3.24,5.07V19.23c0,1.54.31,1.83,1.85,1.67l.5-.08a.86.86,0,0,1,0,.21v2.56a6.2,6.2,0,0,1-3.71.21A2.7,2.7,0,0,1,86.07,22c-.15-.44-.26-.91-.39-1.41a5.22,5.22,0,0,1-.36.42c-2.69,2.72-5.88,3.87-9.64,2.9a6.19,6.19,0,0,1-4.57-5.88,9.71,9.71,0,0,1,.26-2.63,6,6,0,0,1,3.68-4,13.81,13.81,0,0,1,4-.91c1.59-.21,3.16-.4,4.75-.63a1.89,1.89,0,0,0,1.78-1.8A3.33,3.33,0,0,0,82.83,4,9.06,9.06,0,0,0,79,3.82a3.75,3.75,0,0,0-3.29,3.27,2.48,2.48,0,0,1-.08.8Zm10,4.18A13.25,13.25,0,0,1,81,13.35a27,27,0,0,0-3.84.79A3.27,3.27,0,0,0,75,17.87a3.22,3.22,0,0,0,2.79,3,7,7,0,0,0,6.56-2.16,4,4,0,0,0,1-2.07C85.58,15.18,85.55,13.69,85.65,12.07ZM134,16.46c-.07.37-.13.68-.2,1-1.47,4.46-4.44,6.37-8,6.79a9.43,9.43,0,0,1-10.73-7.73A15.62,15.62,0,0,1,116,6.38,9.37,9.37,0,0,1,123.1.71C127.2,0,133,2,134,8.42c.26,1.64.31,3.34.47,5.06H118.56c.13,2.35.49,4.55,2.22,6.24A4.71,4.71,0,0,0,123.39,21a5.82,5.82,0,0,0,6.92-4.07.49.49,0,0,1,.6-.42Zm-15.35-6h11.88a9.62,9.62,0,0,0-1-3.86,4.83,4.83,0,0,0-2.79-2.4A6.15,6.15,0,0,0,118.69,10.45Zm23.89,13H139V1.05h3.42V4.19l.58-.66a8.49,8.49,0,0,1,9-2.66,5.56,5.56,0,0,1,4.26,4.73,17,17,0,0,1,.31,3c0,4.8,0,9.61,0,14.41,0,.14,0,.27,0,.42H152.9v-.6c0-4.49,0-9,0-13.47a10.44,10.44,0,0,0-.44-3,3.43,3.43,0,0,0-3.37-2.48A5.76,5.76,0,0,0,143,8.05a11.61,11.61,0,0,0-.34,3c0,3.95,0,7.86,0,11.76v.65ZM95.08,1.05h3.48v9.51c.2-.21.33-.31.47-.45,2.84-2.89,5.69-5.82,8.53-8.72A1,1,0,0,1,108.4,1c1.33,0,2.69,0,4.15,0-.21.21-.31.34-.44.47-2.51,2.5-5,5-7.52,7.52a.53.53,0,0,0-.11.78q4.11,6.54,8.18,13.08c.1.16.18.32.31.55a2.58,2.58,0,0,1-.47,0h-3.73a.73.73,0,0,1-.68-.39c-2.09-3.5-4.18-7-6.27-10.53-.11-.15-.18-.31-.31-.49-1,1-1.91,1.88-2.85,2.84a.81.81,0,0,0-.16.55v8h-2c-.47,0-1.12.13-1.38-.13S95,22.41,95,21.94V1.65A1.26,1.26,0,0,0,95.08,1.05ZM55,1,46.67,9.3c3,4.76,5.87,9.41,8.82,14.16l-.55,0H51.31a.8.8,0,0,1-.73-.41c-2.09-3.5-4.18-7-6.26-10.53-.08-.15-.19-.28-.32-.49a12.1,12.1,0,0,1-1.56,1.56A3.63,3.63,0,0,0,41,17.06c.13,1.91,0,3.84,0,5.75v.62H37.58V1.05H41V10.4a1.75,1.75,0,0,1,.2.16c.11-.16.16-.34.27-.47,2.82-2.9,5.66-5.77,8.48-8.7A1,1,0,0,1,50.87,1c1.18,0,2.35,0,3.53,0Zm6.89,3.73c1.75-2.56,3.6-4.7,7-4.07V4.53a18.21,18.21,0,0,0-2.69.2,5.54,5.54,0,0,0-4.1,4.73,13.36,13.36,0,0,0-.1,1.41V23.48H58.5V1.11h3.39V4.76Z" style="fill:#fff"/></g></g></svg>