<svg xmlns="http://www.w3.org/2000/svg" viewBox="0 0 155.56 35.91"><g id="Layer_2" data-name="Layer 2"><g id="BG"><g id="页面-1"><g id="kucoin-logo"><g id="KUCOIN-logo-3.0"><path id="形状" d="M122.44,18c0-.92,0-1.78,0-2.58a15.32,15.32,0,0,0-.23-2.24,7.78,7.78,0,0,0-.62-2,6.43,6.43,0,0,0-1.25-1.72,7.74,7.74,0,0,0-2.52-1.74,8.22,8.22,0,0,0-3.22-.6,8.34,8.34,0,0,0-3.23.6,7.86,7.86,0,0,0-2.53,1.73,6.19,6.19,0,0,0-1.24,1.72,7.91,7.91,0,0,0-.62,2,16.81,16.81,0,0,0-.21,2.24q0,1.2,0,2.58c0,.92,0,1.77,0,2.58a16.81,16.81,0,0,0,.21,2.24,7.91,7.91,0,0,0,.62,1.95,6.19,6.19,0,0,0,1.24,1.72,7.68,7.68,0,0,0,2.53,1.72,8.17,8.17,0,0,0,3.23.61,8.06,8.06,0,0,0,3.22-.61,7.68,7.68,0,0,0,2.52-1.72,6.43,6.43,0,0,0,1.25-1.72,7.91,7.91,0,0,0,.62-1.95,15.31,15.31,0,0,0,.22-2.24c0-.8,0-1.66,0-2.57Zm-4.16,0c0,1,0,1.86,0,2.53a11.25,11.25,0,0,1-.17,1.65,3.78,3.78,0,0,1-.33,1.05,2.8,2.8,0,0,1-.49.74,3.15,3.15,0,0,1-1.12.83,4,4,0,0,1-3.08,0,3.21,3.21,0,0,1-1.16-.83,2.8,2.8,0,0,1-.49-.74,3.76,3.76,0,0,1-.32-1.05,12.81,12.81,0,0,1-.16-1.65c0-.67,0-1.51,0-2.53s0-1.86,0-2.54a13.16,13.16,0,0,1,.16-1.65,4,4,0,0,1,.32-1,2.8,2.8,0,0,1,.49-.74,3.31,3.31,0,0,1,1.16-.82,3.85,3.85,0,0,1,1.54-.31,3.72,3.72,0,0,1,1.54.31,3.25,3.25,0,0,1,1.12.82,2.8,2.8,0,0,1,.49.74,4,4,0,0,1,.33,1,11.54,11.54,0,0,1,.17,1.65C118.27,16.09,118.28,16.94,118.28,18Z" style="fill:#fff"/><path id="路径" d="M155.56,7.68a.38.38,0,0,0-.37-.37h-3.43a.37.37,0,0,0-.36.37V20.35L143,7.42a.22.22,0,0,0-.23-.11h-3.18a.39.39,0,0,0-.37.37V28.24a.37.37,0,0,0,.37.36h3.43a.36.36,0,0,0,.36-.36V15.53l8.36,13a.22.22,0,0,0,.23.11h3.18a.38.38,0,0,0,.37-.37Z" style="fill:#fff"/><path id="路径-2" data-name="路径" d="M132.57,7.68a.37.37,0,0,0-.36-.37h-3.43a.37.37,0,0,0-.36.37V28.23a.36.36,0,0,0,.36.37h3.43a.36.36,0,0,0,.36-.37Z" style="fill:#fff"/><path id="路径-3" data-name="路径" d="M91.56,18c0-1,0-1.87,0-2.55a12.81,12.81,0,0,1,.16-1.65,3.61,3.61,0,0,1,6.41-1.49,4.63,4.63,0,0,1,.66,1.51.13.13,0,0,0,.12.09h4c.05,0,.08,0,.07-.1a7.7,7.7,0,0,0-4.13-5.85,8.53,8.53,0,0,0-3.69-.78A7.83,7.83,0,0,0,89.5,9.47a6.2,6.2,0,0,0-1.74,3.2A30.83,30.83,0,0,0,87.4,18a29,29,0,0,0,.36,5.29,6.24,6.24,0,0,0,1.74,3.2,7.8,7.8,0,0,0,5.74,2.33A8.56,8.56,0,0,0,98.93,28a7.68,7.68,0,0,0,4.12-5.85c0-.06,0-.1-.07-.1H99a.12.12,0,0,0-.12.09,4.86,4.86,0,0,1-.66,1.51,3.61,3.61,0,0,1-6.41-1.49,12.81,12.81,0,0,1-.17-1.65Q91.56,19.49,91.56,18Z" style="fill:#fff"/><path id="路径-4" data-name="路径" d="M49,7.68a.37.37,0,0,0-.36-.37H45.17a.39.39,0,0,0-.37.37V28.24a.37.37,0,0,0,.37.36H48.6a.36.36,0,0,0,.36-.36v-6l2.75-3.29,5.65,9.58a.23.23,0,0,0,.2.11h4.17c.19,0,.22-.12.13-.28l-7.4-12.54,6.79-8.14c.13-.16.07-.32-.14-.32H56.56a.15.15,0,0,0-.14.07L49,16.33Z" style="fill:#fff"/><path id="路径-5" data-name="路径" d="M73.92,25.07a3.89,3.89,0,0,1-3.68-3.91V7.68a.37.37,0,0,0-.36-.37H66.45a.37.37,0,0,0-.36.37V21.1a7.83,7.83,0,0,0,15.66,0V7.68a.37.37,0,0,0-.36-.37H78a.37.37,0,0,0-.36.37V21.16A3.89,3.89,0,0,1,73.92,25.07Z" style="fill:#fff"/><path id="形状-2" data-name="形状" d="M10.37,18,21,28.6l6.72-6.72A3,3,0,0,1,32,26.17L23.14,35a3,3,0,0,1-4.28,0L6.07,22.25v7.6a3,3,0,0,1-6.07,0V6.06a3,3,0,1,1,6.07,0v7.6L18.85.88a3.06,3.06,0,0,1,4.29,0L32,9.74A3,3,0,0,1,27.72,14L21,7.31Zm10.64-3h0a3,3,0,1,0,2.15.89A3,3,0,0,0,21,14.92Z" style="fill:#fff;fill-rule:evenodd"/></g></g></g></g></g></svg>