<svg xmlns="http://www.w3.org/2000/svg" viewBox="0 0 158.11 55.94"><g id="Layer_2" data-name="Layer 2"><g id="BG"><path d="M88.84,27.92A15.19,15.19,0,0,1,88,33.19a12.78,12.78,0,0,1-2.59,4.33,12.21,12.21,0,0,1-4.17,2.95,13.69,13.69,0,0,1-5.65,1.08,14.18,14.18,0,0,1-5.64-1.08,12.21,12.21,0,0,1-4.17-2.95,12.75,12.75,0,0,1-2.59-4.33,16.43,16.43,0,0,1,0-10.55,12.4,12.4,0,0,1,2.59-4.35,12.61,12.61,0,0,1,4.17-2.95,13.68,13.68,0,0,1,5.64-1.08,14,14,0,0,1,5.65,1.08,12.21,12.21,0,0,1,4.17,2.95A13,13,0,0,1,88,22.64,15.45,15.45,0,0,1,88.84,27.92ZM75.57,37.23A7.58,7.58,0,0,0,79,36.52a7.16,7.16,0,0,0,2.43-2,8.38,8.38,0,0,0,1.44-3,14.46,14.46,0,0,0,0-7.39,8.38,8.38,0,0,0-1.44-2.95,6.74,6.74,0,0,0-2.43-2,7.68,7.68,0,0,0-3.38-.71,7.58,7.58,0,0,0-3.38.71,7.16,7.16,0,0,0-2.43,2,8.46,8.46,0,0,0-1.44,2.95,14.46,14.46,0,0,0,0,7.39,8.38,8.38,0,0,0,1.44,3,6.74,6.74,0,0,0,2.43,2A7.58,7.58,0,0,0,75.57,37.23Zm16.76,3.88V14.72h5.54V27.39L107,14.72h6.41l-9.71,13L114.1,41.11h-6.86l-9.39-13v13Zm24-26.39h15.86v4.41H121.88v6.39h9.82V29.9h-9.82v6.81h10.43v4.4h-16V14.72Zm35.63,0h6l-8.68,13.12,8.84,13.27H152l-5.7-9-5.7,9h-6.07l8.84-13.28-8.68-13.11h6l5.6,8.91Z" style="fill:#fff"/><circle cx="27.97" cy="12.67" r="12.67" style="fill:#fff"/><circle cx="27.97" cy="43.27" r="12.67" style="fill:#fff"/><circle cx="43.27" cy="27.97" r="12.67" style="fill:#fff"/><circle cx="12.67" cy="27.97" r="12.67" style="fill:#fff"/><path d="M25,25a12.69,12.69,0,0,1-9.32-9.32A12.75,12.75,0,0,1,25,25Z" style="fill:#134bef"/><path d="M15.65,40.29A12.63,12.63,0,0,1,25,31a12.73,12.73,0,0,1-9.31,9.31Z" style="fill:#0932e8"/><path d="M31,31a12.69,12.69,0,0,1,9.32,9.32A12.75,12.75,0,0,1,31,31Z" style="fill:#164bea"/><path d="M40.29,15.65A12.63,12.63,0,0,1,31,25a12.73,12.73,0,0,1,9.31-9.31Z" style="fill:#3170f1"/></g></g></svg>