<svg width="200" height="35" viewBox="0 0 200 35" fill="none" xmlns="http://www.w3.org/2000/svg">
<path fill-rule="evenodd" clip-rule="evenodd" d="M8.18026 0.215088C12.3256 0.215088 19.973 9.59035 22.8864 13.3682C23.6603 14.3717 24.0552 15.6008 24.0552 16.868V20.4286C24.0552 20.9117 23.4399 21.1234 23.1507 20.7364C20.4748 17.1566 12.629 6.84205 10.1407 5.58323C7.46266 4.22846 4.82176 6.74288 4.82176 8.58613C4.82176 12.8381 4.82176 23.9763 4.82176 29.9948C4.82176 32.2039 3.0309 33.9912 0.821757 33.9912H0C0 33.9912 0 9.54177 0 7.07131C0 4.60085 2.98903 0.215088 8.18026 0.215088Z" fill="#fff"/>
<path fill-rule="evenodd" clip-rule="evenodd" d="M24.81 33.991C20.6647 33.991 13.0172 24.6157 10.1038 20.8378C9.32998 19.8344 8.93502 18.6052 8.93502 17.338V13.7774C8.93502 13.2943 9.55031 13.0827 9.83956 13.4696C12.5155 17.0495 20.3612 27.364 22.8496 28.6228C25.5276 29.9776 28.1685 27.4632 28.1685 25.6199C28.1685 21.3679 28.1685 10.2298 28.1685 4.21127C28.1685 2.00213 29.9593 0.214817 32.1685 0.214817H32.9902C32.9902 0.214817 32.9902 24.6643 32.9902 27.1347C32.9902 29.6052 30.0012 33.991 24.81 33.991Z" fill="#fff"/>
<path fill-rule="evenodd" clip-rule="evenodd" d="M194.936 31.7915C193.501 33.3909 191.986 33.9907 189.793 33.9907C187.76 33.9907 185.846 33.271 184.69 32.1114C182.617 30.0322 182.577 26.4334 182.577 23.3146L182.577 23.0299C182.581 19.9813 182.68 16.5739 184.69 14.5577C185.846 13.3981 187.72 12.6784 189.754 12.6784C191.867 12.6784 193.461 13.2382 194.817 14.7576V7.28101C194.817 6.17644 195.712 5.28101 196.817 5.28101H200V31.7508C200 32.8554 199.104 33.7508 198 33.7508H194.936V31.7915ZM135.173 33.751V31.346C135.173 30.245 134.281 29.3525 133.18 29.3525C131.864 29.3525 131.346 28.7128 131.346 27.4732V5.28115H128.163C127.059 5.28115 126.163 6.17658 126.163 7.28115V27.7931C126.163 30.752 127.957 33.751 132.223 33.751H135.173ZM165.716 33.3696V21.1227C165.716 18.3623 167.452 17.4292 169 17.4292C170.547 17.4292 172.246 18.3623 172.246 21.1227V33.3696H175.152C176.257 33.3696 177.152 32.4741 177.152 31.3696V20.4229C177.152 18.2068 176.737 16.3017 175.152 14.6688C174.057 13.5413 172.472 12.8804 170.509 12.8804C168.698 12.8804 166.886 13.5802 165.603 14.9798C165.603 13.9492 164.767 13.1136 163.736 13.1136H160.809V31.3696C160.809 32.4741 161.705 33.3696 162.809 33.3696H165.716ZM191.269 29.3122C188.159 29.3122 187.76 26.7132 187.76 23.3144C187.76 19.9156 188.159 17.3565 191.269 17.3565C194.315 17.3565 194.798 19.8122 194.816 23.1074L194.817 23.3144C194.817 26.7132 194.378 29.3122 191.269 29.3122ZM149.805 29.7391V24.4514C149.49 24.4194 149.129 24.3874 148.724 24.3556C148.107 24.3071 147.583 24.2826 147.153 24.2826C145.56 24.2826 144.348 24.5428 143.546 25.055C142.793 25.536 142.427 26.2627 142.427 27.2775C142.427 27.9291 142.551 28.4321 142.796 28.7727C143.053 29.1322 143.363 29.3972 143.741 29.5838C144.132 29.7758 144.574 29.8964 145.049 29.939C146.267 30.0488 147.318 30.0289 148.487 29.9199C148.966 29.8765 149.405 29.8156 149.805 29.7391ZM145.908 12.8804C148.798 12.8804 151.04 13.4948 152.573 14.7069C154.128 15.9372 154.915 17.8963 154.915 20.5301V30.4553C154.915 33.8889 147.627 33.9905 146.613 33.9905C145.225 33.9905 143.948 33.8729 142.822 33.6411C141.663 33.4021 140.66 33.0094 139.843 32.4722C139.014 31.928 138.363 31.2231 137.911 30.3779C137.461 29.5401 137.235 28.522 137.235 27.3525C137.235 26.2011 137.5 25.1703 138.026 24.2901C138.546 23.4161 139.263 22.68 140.157 22.0997C141.037 21.5309 142.059 21.1025 143.195 20.8251C144.316 20.5525 145.508 20.4145 146.739 20.4145C147.639 20.4145 148.38 20.434 148.956 20.4724C149.264 20.493 149.547 20.5154 149.806 20.5388V20.3806C149.806 19.0736 149.458 18.1701 148.773 17.6954C148.044 17.1917 146.941 16.9355 145.494 16.9355C144.565 16.9355 143.683 17.0019 142.872 17.1337C142.361 17.2173 140.474 17.6309 139.502 17.8654C138.982 17.9909 138.976 17.5478 138.976 17.0608V14.3274C138.976 13.9844 139.045 13.6983 139.412 13.6143C140.32 13.4072 141.629 13.2323 142.553 13.1102C143.706 12.9579 144.834 12.8804 145.908 12.8804Z" fill="#fff"/>
<path fill-rule="evenodd" clip-rule="evenodd" d="M51.8479 33.7513V16.2776L62.5003 32.8335C62.8684 33.4056 63.502 33.7513 64.1822 33.7513H68.0346V7.2815C68.0346 6.17693 67.1391 5.28149 66.0346 5.28149H62.4928V22.7153L51.8406 6.19756C51.4724 5.6265 50.8393 5.28149 50.1598 5.28149H46.3062V31.7513C46.3062 32.8559 47.2016 33.7513 48.3062 33.7513H51.8479ZM102.554 33.7513C103.415 33.7513 104.18 33.1996 104.452 32.3821L108.342 20.676L112.233 32.3821C112.505 33.1996 113.269 33.7513 114.131 33.7513H116.954L122.507 15.501C122.898 14.2161 121.937 12.9188 120.594 12.9188H117.831L114.482 25.7942L110.216 12.9188H106.428L102.202 25.7942L98.8534 12.9188H96.0556C94.7112 12.9188 93.7496 14.2188 94.1433 15.5043L99.7305 33.7513H102.554ZM82.3575 34.2152C84.3755 34.2152 86.5154 33.1984 87.9878 32.3198C89.0137 31.7076 89.0979 30.3258 88.2495 29.4848L86.8555 28.103C85.6082 29.3716 84.5498 29.9867 82.3953 29.9867C79.636 29.9867 78.0863 28.103 78.0863 25.5275H88.4086C89.5132 25.5275 90.4086 24.632 90.4086 23.5275V23.2979C90.4086 17.8008 87.3091 13.726 81.8283 13.726C76.7255 13.726 73.248 17.4164 73.248 23.9514C73.248 32.0625 77.7083 34.2152 82.3575 34.2152ZM86.2148 21.3961H78.3208C78.3607 20.4764 78.4803 19.9166 78.7992 19.1569C79.3574 17.9174 80.5136 16.9977 82.2678 16.9977C84.022 16.9977 85.1782 17.9174 85.7364 19.1569C86.0553 19.9166 86.1749 20.4764 86.2148 21.3961Z" fill="#fff"/>
</svg>
