<?xml version="1.0" encoding="UTF-8"?>
<svg id="Ebene_2" data-name="Ebene 2" xmlns="http://www.w3.org/2000/svg" xmlns:xlink="http://www.w3.org/1999/xlink" viewBox="0 0 188 40">
  <defs>
    <style>
      .cls-1 {
        fill: url(#Unbenannter_Verlauf_2-2);
      }

      .cls-1, .cls-2, .cls-3 {
        stroke-width: 0px;
      }

      .cls-2 {
        fill: url(#Unbenannter_Verlauf_2);
      }

      .cls-3 {
        fill: #fff;
      }
    </style>
    <linearGradient id="Unbenannter_Verlauf_2" data-name="Unbenannter Verlauf 2" x1="370.31" y1="-723.95" x2="397.31" y2="-723.95" gradientTransform="translate(-364.31 -696.45) scale(1 -1)" gradientUnits="userSpaceOnUse">
      <stop offset="0" stop-color="#b000fd"/>
      <stop offset=".98" stop-color="#30daff"/>
    </linearGradient>
    <linearGradient id="Unbenannter_Verlauf_2-2" data-name="Unbenannter Verlauf 2" x1="364.31" y1="-712.45" x2="399.31" y2="-712.45" xlink:href="#Unbenannter_Verlauf_2"/>
  </defs>
  <g id="Sri_Lanka" data-name="Sri Lanka">
    <path class="cls-3" d="m48,29.91h4.73V8.06h-4.73v21.85Z"/>
    <path class="cls-3" d="m56.72,29.91h4.42v-7.4c0-1.65.03-5.03,3.11-5.03,1.52,0,2.49.87,2.49,2.93v9.49h4.42v-10.33c0-3.46-1.87-5.74-5.29-5.74-2.49,0-4.04,1.84-4.76,4.06h-1.93c.84-1.22,1.49-2.56,1.52-3.59h-3.98v15.61Z"/>
    <path class="cls-3" d="m80.19,29.91h5.19v-3.53h-3.36c-.96,0-1.37-.44-1.37-1.37v-7.34h4.04v-3.37h-4.04v-4.9h-4.42v4.9h-3.27v3.37h3.27v8.15c0,2.43,1.43,4.09,3.95,4.09Z"/>
    <path class="cls-3" d="m94.24,30.41c4.73,0,6.69-2.56,7.56-4.56l-3.95-1.53c-.65,1.47-1.62,2.72-3.61,2.72s-3.36-1.12-3.48-3.87h10.98c.44-5.21-2.3-9.33-7.53-9.33-4.51,0-7.87,3.34-7.87,8.24s3.11,8.33,7.9,8.33Zm-3.33-10.36c.31-1.97,1.52-3.03,3.3-3.03,1.87,0,2.99,1.09,3.17,3.03h-6.47Z"/>
    <path class="cls-3" d="m107.03,36h7.99c3.05,0,5.41-1.69,5.41-4.84,0-2.53-2.08-4.71-5.41-4.71h-6.69c-.9,0-1.56,0-1.56-.69,0-.5.31-.84,1.18-1.09.93.41,2.08.53,3.24.53,3.64,0,6.34-2.06,6.72-5.43l.03-.28c.19-1.59.44-1.81,1.4-1.81h1.71v-3.37h-.81c-1.49,0-2.21.53-2.46,2.81h-1.34c-.81-2.28-3.14-3.28-5.69-3.28-3.64,0-6.47,2.34-6.47,5.62,0,1.59.69,2.47,1.77,3.25v1.4c-1.34.44-2.55,1.25-2.55,2.93,0,1.12.78,1.81,1.77,2.09v1.44c-1.12.34-2.15,1.25-2.15,2.5,0,1.5.93,2.93,3.89,2.93Zm4.14-13.7c-1.65,0-2.74-1.06-2.74-2.65s1.09-2.81,2.74-2.81,2.74,1.19,2.74,2.81-1.09,2.65-2.74,2.65Zm-3.08,10.49c-.84,0-1.56-.47-1.56-1.47,0-.62.43-1.19.81-1.4h6.81c1.46,0,1.93.69,1.93,1.4,0,.87-.47,1.47-1.93,1.47h-6.06Z"/>
    <path class="cls-3" d="m123,29.91h4.42v-5.99c0-4.21,1.4-5.43,4.57-5.43.53,0,1.09.03,1.71.09v-4.56c-.25-.03-.47-.03-.93-.03-3.3,0-4.57,1.84-5.26,5.06h-1.87c.72-1.19,1.34-3.12,1.34-4.74h-3.98v15.61Z"/>
    <path class="cls-3" d="m135.55,12.18h4.7v-4.18h-4.7v4.18Zm.15,17.73h4.42v-15.61h-4.42v15.61Z"/>
    <path class="cls-3" d="m149.28,29.91h5.19v-3.53h-3.36c-.96,0-1.37-.44-1.37-1.37v-7.34h4.04v-3.37h-4.04v-4.9h-4.42v4.9h-3.26v3.37h3.26v8.15c0,2.43,1.43,4.09,3.95,4.09Z"/>
    <path class="cls-3" d="m163.33,30.41c4.73,0,6.69-2.56,7.56-4.56l-3.95-1.53c-.65,1.47-1.62,2.72-3.61,2.72s-3.36-1.12-3.48-3.87h10.98c.44-5.21-2.3-9.33-7.53-9.33-4.51,0-7.87,3.34-7.87,8.24s3.11,8.33,7.9,8.33Zm-3.33-10.36c.31-1.97,1.52-3.03,3.3-3.03,1.87,0,2.99,1.09,3.17,3.03h-6.47Z"/>
    <path class="cls-3" d="m180.44,30.41c4.73,0,6.69-2.56,7.56-4.56l-3.95-1.53c-.65,1.47-1.62,2.72-3.61,2.72s-3.36-1.12-3.48-3.87h10.98c.43-5.21-2.3-9.33-7.53-9.33-4.51,0-7.87,3.34-7.87,8.24s3.11,8.33,7.9,8.33Zm-3.33-10.36c.31-1.97,1.52-3.03,3.3-3.03,1.87,0,2.99,1.09,3.17,3.03h-6.47Z"/>
    <path class="cls-2" d="m6,15v17.92c0,.22.06.43.17.62.11.19.27.35.45.46,1.78,1.03,6.98,4.05,9.84,5.7.24.14.61.37.78.28.96-.48,1.89-1.07,2.91-1.66-.27-.19-.41-.29-.56-.38-3.47-2.03-6.93-4.06-10.39-6.09v-3.62l2.77,1.61c3.55,2.06,7.09,4.12,10.64,6.18.26.15.65.4.84.3,1.04-.51,2.03-1.12,3.17-1.77l-17.43-10.21v-3.58c1.51.87,3.01,1.75,4.52,2.63,5.18,3.01,10.36,6.02,15.54,9.03.16.09.33.14.51.14s.36-.05.51-.14c.9-.54,1.81-1.07,2.72-1.6l-3.65-2.15L6,15Z"/>
    <path class="cls-1" d="m34.4,9.67c-2.3-1.31-4.59-2.64-6.88-3.97l-3.6-2.09-3.16,1.82c3.48,2,6.96,4,10.44,6,.2.09.37.23.49.42.11.19.17.41.15.62v2.71l-.03-.02c-1.74-.98-7.11-3.91-8.84-4.92-1.73-1-3.51-2.04-5.27-3.05l-3.35,1.93c4.63,2.66,12.62,7.09,17.5,9.89,0,1.19,0,2.39.01,3.57-.06-.04-.12-.08-.18-.11-6.64-3.83-16.93-9.6-23.56-13.45l3.03-1.75,3.36-1.94,3.04-1.76,3.16-1.83-2.64-1.53c-.22-.12-.56-.3-.72-.21-.52.26-1.02.55-1.54.84L4.54,7.37l-.14.07-.51.3-3.34,1.92c-.18.08-.33.22-.43.39-.1.17-.14.37-.13.57.02,6.3.02,12.6.01,18.89-.02.21.03.42.14.6.11.18.27.32.46.41.87.48,1.73.98,2.59,1.48v-4.17c-.02-.11-.02-.21-.02-.32.03-5.21.03-10.42.03-15.63l1.55-.89c5.79,3.34,13.41,7.63,20.21,11.48l.05.03c2.06,1.17,4.04,2.29,5.87,3.34l4.05,2.3c0-5.82.02-11.63.05-17.45.02-.21-.03-.42-.14-.6-.11-.18-.27-.33-.46-.41Z"/>
  </g>
</svg>