<?xml version="1.0" encoding="UTF-8" standalone="no"?>
<svg
   xmlns:dc="http://purl.org/dc/elements/1.1/"
   xmlns:cc="http://creativecommons.org/ns#"
   xmlns:rdf="http://www.w3.org/1999/02/22-rdf-syntax-ns#"
   xmlns:svg="http://www.w3.org/2000/svg"
   xmlns="http://www.w3.org/2000/svg"
   xmlns:sodipodi="http://sodipodi.sourceforge.net/DTD/sodipodi-0.dtd"
   xmlns:inkscape="http://www.inkscape.org/namespaces/inkscape"
   id="Layer_1"
   data-name="Layer 1"
   viewBox="0 0 1080.9353 754.89527"
   version="1.1"
   sodipodi:docname="encointer_logo_nolatin.svg"
   inkscape:version="0.92.3 (2405546, 2018-03-11)"
   width="285.99747mm"
   height="199.73271mm">
  <metadata
     id="metadata113">
    <rdf:RDF>
      <cc:Work
         rdf:about="">
        <dc:format>image/svg+xml</dc:format>
        <dc:type
           rdf:resource="http://purl.org/dc/dcmitype/StillImage" />
        <dc:title>encointer_logo</dc:title>
      </cc:Work>
    </rdf:RDF>
  </metadata>
  <sodipodi:namedview
     pagecolor="#ffffff"
     bordercolor="#666666"
     borderopacity="1"
     objecttolerance="10"
     gridtolerance="10"
     guidetolerance="10"
     inkscape:pageopacity="0"
     inkscape:pageshadow="2"
     inkscape:window-width="1280"
     inkscape:window-height="934"
     id="namedview111"
     showgrid="false"
     inkscape:zoom="0.2639821"
     inkscape:cx="-172.12185"
     inkscape:cy="336.43761"
     inkscape:window-x="0"
     inkscape:window-y="31"
     inkscape:window-maximized="1"
     inkscape:current-layer="Layer_1"
     fit-margin-left="5"
     units="mm"
     fit-margin-top="5"
     fit-margin-right="5"
     fit-margin-bottom="5" />
  <defs
     id="defs4">
    <style
       id="style2">.cls-1{fill:#231f20;}</style>
  </defs>
  <title
     id="title6">encointer_logo</title>
  <path
     class="cls-1"
     d="m 39.147638,680.64764 c 1.08,22.95 15.12,37.81 35.64,37.81 15.11,0 23.75,-5.94 34.550002,-23.49 l 16.2,9.18 c -12.42,21.87 -28.890002,31.85 -51.560002,31.85 -32.4,0 -55.08,-24 -55.08,-58.58 0,-35.1 22.14,-59.12 54.27,-59.12 32.390002,0 53.450002,23.49 53.450002,59.12 v 3.24 z m 67.220002,-16.19 c -3.51,-17.54 -16.470002,-28.88 -32.930002,-28.88 -16.2,0 -30,12.14 -32.94,28.88 z"
     id="path8"
     inkscape:connector-curvature="0"
     style="fill:#231f20" />
  <path
     class="cls-1"
     d="m 185.73764,620.71764 v 13.49 c 9.72,-11.87 18.36,-16.19 32.4,-16.19 13.49,0 25.91,5.94 32.12,15.39 4.32,7 6.21,15.38 6.21,30 v 69.35 h -19.17 v -66.15 c 0,-11.88 -0.81,-17.28 -3.78,-21.86 -3.51,-5.94 -11.06,-9.45 -20,-9.45 -10.52,0 -19.16,4.85 -23.21,13.49 -3.24,6.75 -4.59,14.58 -4.59,28.08 v 55.89 h -19.15 v -112 z"
     id="path10"
     inkscape:connector-curvature="0"
     style="fill:#231f20" />
  <path
     class="cls-1"
     d="m 809.09764,732.75764 h -19.17 v -94.23 h -11.61 v -17.81 h 11.61 v -40.5 h 19.17 v 40.5 h 20 v 17.81 h -20 z"
     id="path12"
     inkscape:connector-curvature="0"
     style="fill:#231f20" />
  <path
     class="cls-1"
     d="m 873.04764,680.64764 c 1.08,22.95 15.11,37.8 35.63,37.8 15.12,0 23.76,-5.94 34.56,-23.49 l 16.2,9.18 c -12.42,21.87 -28.89,31.85 -51.57,31.85 -32.39,0 -55.07,-24 -55.07,-58.58 0,-35.1 22.14,-59.12 54.26,-59.12 32.4,0 53.46,23.49 53.46,59.12 v 3.24 z m 67.25,-16.19 c -3.51,-17.54 -16.47,-28.88 -32.94,-28.88 -16.2,0 -30,12.14 -32.93,28.88 z"
     id="path14"
     inkscape:connector-curvature="0"
     style="fill:#231f20" />
  <path
     class="cls-1"
     d="m 1019.6676,620.71764 v 12.14 c 10,-12.14 14.58,-14.84 25.37,-14.84 6.48,0 10.26,1.08 17,4.86 l -8.91,17.27 c -4.59,-3 -7,-3.78 -11.34,-3.78 -7.29,0 -14.57,4.06 -17.81,10 -3,5.67 -3.5,13.77 -3.5,27.27 l -0.82,59.13 h -19.17 v -112 z"
     id="path16"
     inkscape:connector-curvature="0"
     style="fill:#231f20" />
  <path
     class="cls-1"
     d="m 356.04764,735.45764 c -35.09,0 -62.58,-27.12 -62.58,-61.75 a 61.85,61.85 0 0 1 18.12,-44.37 c 11.67,-11.57 27.56,-17.93 44.73,-17.93 14,0 23.9,3 36.53,11 a 3.21,3.21 0 0 1 1.47,2.68 v 25.37 a 3.18,3.18 0 0 1 -5.54,2.13 c -12,-13.27 -19.68,-17.31 -33,-17.31 -21,0 -36.23,16 -36.23,38.13 0,22.13 15.13,38.12 36,38.12 13.42,0 21.7,-4.46 34.07,-18.37 a 3.18,3.18 0 0 1 5.55,2.11 v 25.38 a 3.19,3.19 0 0 1 -1.49,2.69 c -14.41,9.02 -23.9,12.12 -37.63,12.12 z m 0.27,-117.7 c -15.49,0 -29.78,5.71 -40.26,16.09 a 55.52,55.52 0 0 0 -16.23,39.86 c 0,31.06 24.69,55.4 56.22,55.4 12,0 20.16,-2.5 32.72,-10.2 v -15.68 c -10.89,10.69 -20.22,14.64 -33.26,14.64 -24.53,0 -42.32,-18.71 -42.32,-44.48 0,-25.36 18.3,-44.49 42.58,-44.49 12.91,0 21.74,3.57 32.19,13.65 v -15.73 c -10.75,-6.62 -19.49,-9.11 -31.6,-9.11 z"
     id="path18"
     inkscape:connector-curvature="0"
     style="fill:#231f20" />
  <path
     class="cls-1"
     d="m 482.35764,735.45764 c -34.78,0 -62,-27.73 -62,-63.11 0,-33.61 28.07,-61 62.57,-61 34.94,0 62.3,27.24 62.3,62 0,34.76 -27.63,62.11 -62.87,62.11 z m 0.54,-117.71 c -31,0 -56.22,24.49 -56.22,54.6 a 57.15,57.15 0 0 0 16.07,40.39 55,55 0 0 0 39.61,16.36 c 31.68,0 56.49,-24.45 56.49,-55.67 0,-31.22 -24.58,-55.72 -55.95,-55.72 z m -0.85,100.12 c -24.76,0 -42.05,-18.52 -42.05,-45 0,-25.47 17.91,-43.95 42.59,-43.95 12.12,0 23.07,4.45 30.84,12.52 7.77,8.07 12,19.4 12,32 0.06,26.14 -17.79,44.43 -43.38,44.43 z m 0.54,-82.61 c -21.34,0 -36.24,15.45 -36.24,37.59 0,22.76 14.68,38.66 35.7,38.66 21.81,0 37.05,-15.67 37.05,-38.12 0,-22.45 -14.97,-38.13 -36.47,-38.13 z"
     id="path20"
     inkscape:connector-curvature="0"
     style="fill:#231f20" />
  <path
     class="cls-1"
     d="m 599.87764,729.74764 h -19.17 a 3.18,3.18 0 0 1 -3.18,-3.18 v -112 a 3.18,3.18 0 0 1 3.18,-3.17 h 19.17 a 3.17,3.17 0 0 1 3.18,3.17 v 112 a 3.18,3.18 0 0 1 -3.18,3.18 z m -16,-6.35 h 12.82 v -105.69 h -12.81 z"
     id="path22"
     inkscape:connector-curvature="0"
     style="fill:#231f20" />
  <path
     class="cls-1"
     d="m 739.76764,733.25764 h -19.17 a 3.19,3.19 0 0 1 -3.18,-3.18 v -66.14 c 0,-11.57 -0.76,-16.27 -3.27,-20.14 l -0.06,-0.11 c -2.92,-4.94 -9.37,-7.89 -17.25,-7.89 -9.45,0 -16.86,4.25 -20.34,11.67 -3.09,6.43 -4.29,13.91 -4.29,26.72 v 55.89 a 3.18,3.18 0 0 1 -3.16,3.18 h -19.18 a 3.18,3.18 0 0 1 -3.18,-3.18 v -112 a 3.18,3.18 0 0 1 3.18,-3.18 h 19.18 a 3.18,3.18 0 0 1 3.17,3.18 v 5.32 c 8.37,-8 16.93,-11.19 29.22,-11.19 14.64,0 28,6.44 34.78,16.82 a 0.22,0.22 0 0 1 0.05,0.08 c 4.75,7.71 6.69,16.87 6.69,31.63 v 69.38 a 3.19,3.19 0 0 1 -3.19,3.14 z m -16,-6.36 h 12.81 v -66.2 c 0,-13.63 -1.6,-21.56 -5.71,-28.27 -5.58,-8.45 -17.13,-13.91 -29.45,-13.91 -13,0 -20.85,3.93 -29.93,15 a 3.18,3.18 0 0 1 -5.64,-2 v -10.3 h -12.8 v 105.68 h 12.82 v -52.71 c 0,-13.85 1.37,-22.1 4.9,-29.45 4.48,-9.57 14.28,-15.28 26.07,-15.28 10.12,0 18.59,4.09 22.68,11 3.62,5.62 4.26,12.08 4.26,23.54 z"
     id="path24"
     inkscape:connector-curvature="0"
     style="fill:#231f20" />
  <rect
     class="cls-1"
     x="298.37762"
     y="573.80762"
     width="282.25"
     height="6.3499999"
     id="rect74"
     style="fill:#231f20" />
  <rect
     class="cls-1"
     x="599.79761"
     y="573.80762"
     width="139.97"
     height="6.3499999"
     id="rect76"
     style="fill:#231f20" />
  <rect
     class="cls-1"
     x="298.37762"
     y="556.09766"
     width="282.25"
     height="6.3499999"
     id="rect78"
     style="fill:#231f20" />
  <rect
     class="cls-1"
     x="599.79761"
     y="556.09766"
     width="139.97"
     height="6.3499999"
     id="rect80"
     style="fill:#231f20" />
  <path
     class="cls-1"
     d="m 309.40764,424.45764 5.24,9 c 10.74,-46.34 18.44,-114.91 -4.06,-182.77 -2.2,-6.64 -2.42,-29.23 -2.57,-45.73 -0.1,-10.57 -0.19,-19.7 -0.7,-24.17 -1.27,-11.11 -2.27,-22.43 -3.27,-33.33 -0.08,-1 -0.18,-2 -0.26,-3.06 l -6.11,10.35 c 0.78,8.89 1.62,17.93 2.66,26.85 0.47,4.1 0.55,13.49 0.65,23.43 0.18,18.84 0.38,40.19 2.93,47.87 15.13,45.63 18.16,97 9,152.7 -1.03,6.57 -2.24,12.86 -3.51,18.86 z"
     id="path82"
     inkscape:connector-curvature="0"
     style="fill:#231f20" />
  <path
     class="cls-1"
     d="m 274.66764,216.53764 c -1.69,11.3 -2.86,24.48 1.27,36.59 8.57,25.12 16.53,67.34 9.9,131.27 l 6,10.17 c 5.62,-45.83 6.11,-98.65 -9.26,-143.7 -3.65,-10.68 -2.55,-22.83 -1,-33.3 1.79,-12 1.2,-24.29 0.39,-34.72 0,-0.43 -0.07,-0.87 -0.11,-1.31 l -6.3,10.68 a 127.14,127.14 0 0 1 -0.89,24.32 z"
     id="path84"
     inkscape:connector-curvature="0"
     style="fill:#231f20" />
  <path
     class="cls-1"
     d="m 326.48764,174.91764 c 6.7,56 15,125.73 18.38,136.65 0.19,0.64 14.31,63 -17,144.39 l 4.47,7.62 a 315.19,315.19 0 0 0 22.22,-96.27 c 2.11,-32.49 -1.93,-54.17 -3,-57.79 -3.17,-10.32 -11.81,-82.63 -18.12,-135.42 -3.65,-30.53 -6.81,-56.94 -8.23,-65.95 l -5.7,9.65 c 1.64,12.45 4.16,33.56 6.98,57.12 z"
     id="path86"
     inkscape:connector-curvature="0"
     style="fill:#231f20" />
  <path
     class="cls-1"
     d="m 342.09764,102.58764 0.8,2.93 c 14.54,52.92 21.36,91.56 18.71,106 -4.76,26 -0.34,42.39 4.78,61.39 5.69,21.13 12.14,45.08 7.87,89.7 -0.32,3.28 -0.66,7.2 -1,11.54 -1.55,17.84 -3.65,42.31 -7.21,57.31 a 159.88,159.88 0 0 1 -22.19,51.6 l 3.93,6.69 a 166.86,166.86 0 0 0 25.06,-56.67 c 3.7,-15.59 5.82,-40.31 7.37,-58.35 0.37,-4.31 0.7,-8.21 1,-11.47 4.4,-45.88 -2.22,-70.48 -8.07,-92.18 -4.9,-18.19 -9.13,-33.9 -4.65,-58.32 3.87,-21.14 -10.15,-77.45 -18.85,-109.13 l -0.8,-2.91 c -1.74,-6.350002 -3.88,-14.160002 -6.25,-22.000002 l -4.86,8.23 c 1.61,5.61 3.1,11.02 4.36,15.640002 z"
     id="path88"
     inkscape:connector-curvature="0"
     style="fill:#231f20" />
  <path
     class="cls-1"
     d="m 489.09764,309.83764 -4.58,-7.6 c -10.81,-17.94 -22,-36.49 -34.27,-53.8 -9.39,-13.23 -10.68,-23.65 -4.46,-36 7.66,-15.15 4.56,-31.29 1.57,-42.1 -7.23,-26.12 -15.47,-51.7 -24,-77.790002 -4.43,-13.58 -16.95,-40.41 -26.44,-54.65 a 73.6,73.6 0 0 0 -19,-19 l -3.57,6 a 66.46,66.46 0 0 1 16.79,16.86 c 9.05,13.56 21.41,40.05 25.62,52.94 8.49,26.000002 16.71,51.510002 23.89,77.480002 4.27,15.42 3.93,27.2 -1.07,37.09 -7.37,14.59 -5.83,27.9 5,43.15 12.13,17.1 23.24,35.53 34,53.36 l 4.59,7.61 c 4.68,7.74 3.06,16.51 -4,21.82 a 60.09,60.09 0 0 1 -16.37,8.54 c -11,3.81 -15.18,7.77 -10.76,21.23 4.69,14.29 2.35,22.13 -8.35,28 l -3.32,1.81 2.07,3.17 c 5.23,8 6.9,12.39 3,17.17 -7.88,9.65 -10,19.94 -6.83,33.38 4.69,19.95 0.86,34.82 -11.7,45.45 a 40.76,40.76 0 0 1 -21.88,9.29 c -0.75,0.08 -4.66,0.17 -10.12,0.26 a 41.15,41.15 0 0 0 9.23,-6 c 18.62,-16.27 18.28,-35.21 18,-49 0,-2.07 -0.08,-4 0,-5.81 a 57.6,57.6 0 0 1 6.41,-25.82 c 3.69,-7.12 2.75,-14.23 1.23,-20.51 6.21,-7.59 8.8,-16.89 8.14,-29.08 a 121.57,121.57 0 0 0 -3.73,-13.41 c -2.6,-5.2 -1.14,-8.25 2.41,-14.65 7.1,-12.81 17.84,-32.17 -13.62,-88.62 q -1.37,-2.46 -2.51,-4.48 c -3.48,-6.16 -5.39,-9.56 -5.62,-11.86 -0.19,-1.95 0.83,-4.07 3.34,-9.1 1.42,-2.84 3.17,-6.36 5.28,-11.11 2.57,-4.18 7.3,-16.71 -1.91,-45 -3.54,-10.89 -6.55,-21.62 -9.45,-32 -3.71,-13.28 -7.55,-27 -12.49,-40.880002 -4.94,-13.88 -16.16,-39 -24.29,-52.88 -0.3,-0.52 -0.61,-1 -0.91,-1.52 a 70.93,70.93 0 0 0 -5.44,-7.6 l -3.93,6.41 c 1.13,1.5 2.24,3.11 3.3,4.82 0.28,0.46 0.56,0.92 0.83,1.39 7.94,13.52 18.88,38.09 23.74,51.69 4.86,13.600002 8.49,26.640002 12.34,40.410002 2.92,10.45 5.94,21.25 9.53,32.28 8.85,27.22 3.69,37.5 2.57,39.29 a 3.82,3.82 0 0 0 -0.3,0.55 c -2.09,4.71 -3.84,8.21 -5.24,11 -5.71,11.43 -5.94,12.65 2.44,27.51 q 1.14,2 2.5,4.45 c 29.57,53.06 20.34,69.69 13.6,81.83 -3.53,6.38 -6.87,12.4 -2.6,21.05 0.5,1.36 2.77,9.47 3.07,10.95 0.56,10.9 -1.85,18.94 -7.59,25.29 l -1.19,1.42 0.48,1.83 c 1.85,7.12 2.41,12.23 -0.22,17.32 a 64.28,64.28 0 0 0 -7.26,28.89 c 0,1.91 0,3.93 0,6.07 0.23,13.16 0.53,29.53 -15.65,43.66 -5.28,4.62 -12.39,7.22 -19.29,9.34 a 48.41,48.41 0 0 1 -7.47,1.35 l -0.46,0.05 -0.42,0.17 c -0.59,0.23 -1.3,0.46 -2.09,0.68 l -4.73,0.06 c 4.73,-2.18 9.27,-4.93 12.18,-8.58 12.82,-16.14 17.28,-37.56 19.95,-50.36 0.55,-2.64 1,-4.91 1.46,-6.6 6.39,-24.67 8.31,-73.4 8.52,-79.21 14.62,-45.09 -0.74,-81.43 -9.94,-103.18 -3.22,-7.62 -6,-14.2 -6.18,-18.12 -0.38,-8.71 1.79,-16.69 3.9,-24.4 2.2,-8.07 4.28,-15.7 2.75,-22.78 -1.22,-5.59 -2.54,-12.1 -3.93,-19 -4.85,-23.93 -10.89,-53.71 -18,-72.000002 -3.81,-9.82 -11.94,-29.81 -19.06,-44.8 l -4.31,7.29 c 6.49,14.12 13.43,31.22 16.86,40.000002 6.91,17.78 12.91,47.26 17.72,70.9 1.4,6.92 2.73,13.46 3.95,19.08 1.17,5.42 -0.61,11.93 -2.67,19.47 -2.09,7.81 -4.56,16.75 -4.09,26.55 0.23,5.17 3.1,11.95 6.73,20.53 9.41,22.27 23.64,55.94 9.58,98.75 l -0.16,0.48 v 0.5 c 0,0.53 -1.85,53.23 -8.32,78.18 -0.48,1.86 -1,4.21 -1.53,6.93 -2.54,12.2 -6.8,32.61 -18.58,47.44 -3.46,4.36 -11.41,7.52 -17.5,9.73 l 7.07,12 c 3.46,-0.57 6.72,-1.2 9.38,-1.9 15.21,-0.17 33.43,-0.42 35.15,-0.64 a 47.56,47.56 0 0 0 25.53,-10.89 c 14.56,-12.32 19.27,-29.95 14,-52.39 -2.68,-11.42 -1.11,-19.35 5.44,-27.36 6.55,-8.01 3.12,-16.24 -0.61,-22.37 14.22,-9.62 12.08,-23.29 8.45,-34.35 -2.9,-8.85 -1.95,-9.56 6.4,-12.44 a 67.24,67.24 0 0 0 18.28,-9.56 c 9.88,-7.44 12.27,-20.2 5.74,-31 z"
     id="path90"
     inkscape:connector-curvature="0"
     style="fill:#231f20" />
  <path
     class="cls-1"
     d="m 257.27764,335.79764 7,11.89 c 0.31,-39.15 -2.91,-71.91 -9.68,-96.36 -1.81,-6.55 -1.8,-13.76 -1.31,-21.38 l -7.16,12.12 a 52.06,52.06 0 0 0 1.74,11.12 c 5.91,21.39 9.04,49.38 9.41,82.61 z"
     id="path92"
     inkscape:connector-curvature="0"
     style="fill:#231f20" />
  <path
     class="cls-1"
     d="m 231.32764,291.63764 c 0,-7.19 0.06,-15.5 0.08,-24.66 l -7,11.9 v 0.94 z"
     id="path94"
     inkscape:connector-curvature="0"
     style="fill:#231f20" />
  <path
     class="cls-1"
     d="m 742.72764,424.45764 -5.24,9 c -10.74,-46.38 -18.44,-114.95 4.06,-182.81 2.2,-6.64 2.42,-29.23 2.57,-45.73 0.1,-10.57 0.19,-19.7 0.7,-24.17 1.29,-11.07 2.28,-22.39 3.23,-33.34 0.09,-1 0.18,-2 0.27,-3.06 l 6.11,10.35 c -0.79,8.89 -1.62,17.93 -2.67,26.85 -0.46,4.1 -0.55,13.49 -0.65,23.43 -0.18,18.84 -0.38,40.19 -2.93,47.87 -15.13,45.63 -18.16,97 -9,152.7 1.07,6.62 2.28,12.91 3.55,18.91 z"
     id="path96"
     inkscape:connector-curvature="0"
     style="fill:#231f20" />
  <path
     class="cls-1"
     d="m 777.46764,216.53764 c 1.69,11.3 2.86,24.48 -1.27,36.59 -8.57,25.12 -16.53,67.34 -9.9,131.27 l -6,10.17 c -5.62,-45.83 -6.1,-98.65 9.27,-143.7 3.64,-10.68 2.54,-22.83 1,-33.3 -1.78,-12 -1.2,-24.29 -0.39,-34.72 0,-0.43 0.07,-0.87 0.11,-1.31 l 6.3,10.68 a 127.14,127.14 0 0 0 0.88,24.32 z"
     id="path98"
     inkscape:connector-curvature="0"
     style="fill:#231f20" />
  <path
     class="cls-1"
     d="m 725.64764,174.91764 c -6.69,56 -15,125.73 -18.38,136.65 -0.19,0.64 -14.31,63 17,144.39 l -4.47,7.62 a 315.19,315.19 0 0 1 -22.22,-96.27 c -2.11,-32.49 1.93,-54.17 3,-57.79 3.17,-10.32 11.81,-82.63 18.12,-135.42 3.65,-30.53 6.81,-56.94 8.23,-65.95 l 5.7,9.65 c -1.64,12.45 -4.16,33.56 -6.98,57.12 z"
     id="path100"
     inkscape:connector-curvature="0"
     style="fill:#231f20" />
  <path
     class="cls-1"
     d="m 710.04764,102.58764 -0.8,2.93 c -14.54,52.92 -21.36,91.56 -18.71,106 4.76,26 0.34,42.39 -4.78,61.39 -5.69,21.13 -12.14,45.08 -7.86,89.7 0.31,3.28 0.65,7.2 1,11.54 1.53,17.83 3.62,42.25 7.2,57.33 a 159.88,159.88 0 0 0 22.19,51.6 l -3.93,6.69 a 166.86,166.86 0 0 1 -25.06,-56.67 c -3.7,-15.59 -5.82,-40.31 -7.36,-58.35 -0.37,-4.31 -0.71,-8.21 -1,-11.47 -4.4,-45.88 2.23,-70.48 8.07,-92.18 4.9,-18.19 9.13,-33.9 4.65,-58.32 -3.87,-21.14 10.15,-77.45 18.85,-109.13 l 0.8,-2.91 c 1.74,-6.350002 3.88,-14.160002 6.25,-22.000002 l 4.86,8.23 c -1.63,5.59 -3.11,11 -4.37,15.620002 z"
     id="path102"
     inkscape:connector-curvature="0"
     style="fill:#231f20" />
  <path
     class="cls-1"
     d="m 563.04764,309.83764 4.59,-7.6 c 10.8,-17.94 22,-36.49 34.26,-53.8 9.39,-13.23 10.68,-23.65 4.46,-36 -7.65,-15.15 -4.56,-31.29 -1.57,-42.1 7.23,-26.12 15.47,-51.7 24,-77.790002 4.43,-13.58 16.95,-40.41 26.44,-54.65 a 73.6,73.6 0 0 1 19,-19 l 3.57,6 a 66.46,66.46 0 0 0 -16.75,16.92 c -9.05,13.56 -21.41,40.05 -25.62,52.94 -8.49,26.000002 -16.7,51.510002 -23.89,77.480002 -4.27,15.42 -3.93,27.2 1.07,37.09 7.37,14.59 5.83,27.9 -5,43.15 -12.13,17.1 -23.24,35.53 -34,53.36 l -4.56,7.62 c -4.68,7.74 -3.06,16.51 4,21.82 a 59.88,59.88 0 0 0 16.36,8.54 c 11,3.81 15.18,7.77 10.76,21.23 -4.69,14.29 -2.35,22.13 8.35,28 l 3.32,1.81 -2.07,3.17 c -5.23,8 -6.9,12.39 -3,17.17 7.88,9.65 10,19.94 6.83,33.38 -4.69,19.95 -0.86,34.82 11.7,45.45 a 40.76,40.76 0 0 0 21.88,9.29 c 0.76,0.08 4.66,0.17 10.12,0.26 a 41.37,41.37 0 0 1 -9.23,-6 c -18.62,-16.27 -18.28,-35.21 -18,-49 0,-2.07 0.07,-4 0,-5.81 a 57.6,57.6 0 0 0 -6.41,-25.82 c -3.69,-7.12 -2.74,-14.23 -1.23,-20.51 -6.21,-7.59 -8.8,-16.89 -8.14,-29.08 a 119.42,119.42 0 0 1 3.76,-13.48 c 2.6,-5.2 1.14,-8.25 -2.41,-14.65 -7.11,-12.81 -17.85,-32.17 13.61,-88.62 q 1.37,-2.46 2.51,-4.48 c 3.48,-6.16 5.39,-9.56 5.62,-11.86 0.19,-1.95 -0.82,-4.07 -3.34,-9.1 -1.41,-2.84 -3.17,-6.36 -5.28,-11.11 -2.57,-4.18 -7.3,-16.71 1.91,-45 3.55,-10.89 6.55,-21.62 9.45,-32 3.71,-13.28 7.55,-27 12.49,-40.880002 4.94,-13.88 16.16,-39 24.29,-52.88 0.31,-0.52 0.61,-1 0.92,-1.52 a 70.89,70.89 0 0 1 5.43,-7.6 l 3.8,6.41 c -1.13,1.5 -2.24,3.11 -3.3,4.82 -0.28,0.46 -0.56,0.92 -0.83,1.39 -7.94,13.52 -18.87,38.09 -23.74,51.66 -4.87,13.570002 -8.49,26.640002 -12.34,40.410002 -2.92,10.45 -5.94,21.25 -9.53,32.28 -8.85,27.22 -3.69,37.5 -2.57,39.29 0.18,0.28 0.27,0.48 0.31,0.55 2.08,4.71 3.83,8.21 5.24,11 5.7,11.43 5.93,12.65 -2.45,27.51 q -1.14,2 -2.5,4.45 c -29.57,53.06 -20.34,69.69 -13.6,81.83 3.53,6.38 6.88,12.4 2.6,21.05 -0.5,1.36 -2.77,9.47 -3.07,10.95 -0.56,10.9 1.85,18.94 7.6,25.29 l 1.26,1.39 -0.47,1.83 c -1.86,7.12 -2.42,12.23 0.22,17.32 a 64.54,64.54 0 0 1 7.17,28.95 c 0,1.91 0,3.93 0,6.07 -0.23,13.16 -0.53,29.53 15.65,43.66 5.28,4.62 12.39,7.22 19.29,9.34 a 48.41,48.41 0 0 0 7.47,1.35 l 0.46,0.05 0.43,0.17 c 0.59,0.23 1.29,0.46 2.08,0.68 l 4.74,0.06 c -4.74,-2.18 -9.28,-4.93 -12.18,-8.58 -12.83,-16.14 -17.29,-37.56 -20,-50.36 -0.54,-2.64 -1,-4.91 -1.46,-6.6 -6.39,-24.67 -8.31,-73.4 -8.52,-79.21 -14.62,-45.09 0.75,-81.43 9.94,-103.18 3.22,-7.62 6,-14.2 6.18,-18.12 0.39,-8.71 -1.79,-16.69 -3.89,-24.4 -2.21,-8.07 -4.28,-15.7 -2.76,-22.78 1.22,-5.59 2.54,-12.1 3.93,-19 4.85,-23.93 10.89,-53.71 18,-72.000002 3.81,-9.82 11.94,-29.81 19.06,-44.8 l 4.31,7.29 c -6.49,14.12 -13.43,31.22 -16.85,40.000002 -6.88,17.78 -12.88,47.26 -17.65,70.9 -1.4,6.92 -2.72,13.46 -4,19.08 -1.16,5.42 0.61,11.93 2.67,19.47 2.14,7.85 4.57,16.75 4.13,26.55 -0.23,5.17 -3.1,11.95 -6.72,20.53 -9.42,22.27 -23.65,55.94 -9.58,98.75 l 0.15,0.48 v 0.5 c 0,0.53 1.85,53.23 8.32,78.18 0.48,1.86 1,4.21 1.54,6.93 2.54,12.2 6.79,32.61 18.58,47.44 3.46,4.36 11.4,7.52 17.49,9.73 l -7.06,12 c -3.47,-0.57 -6.73,-1.2 -9.39,-1.9 -15.21,-0.17 -33.43,-0.42 -35.15,-0.64 a 47.56,47.56 0 0 1 -25.53,-10.89 c -14.56,-12.32 -19.27,-29.95 -14,-52.39 2.68,-11.42 1.11,-19.35 -5.44,-27.36 -6.55,-8.01 -3.12,-16.24 0.61,-22.37 -14.22,-9.62 -12.07,-23.29 -8.45,-34.35 2.91,-8.85 1.95,-9.56 -6.4,-12.44 a 67.24,67.24 0 0 1 -18.28,-9.56 c -9.87,-7.44 -12.26,-20.2 -5.72,-31 z"
     id="path104"
     inkscape:connector-curvature="0"
     style="fill:#231f20" />
  <path
     class="cls-1"
     d="m 794.85764,335.79764 -7,11.89 c -0.31,-39.15 2.91,-71.91 9.68,-96.36 1.81,-6.55 1.8,-13.76 1.31,-21.38 l 7.2,12.12 a 52.68,52.68 0 0 1 -1.73,11.12 c -5.96,21.39 -9.09,49.38 -9.46,82.61 z"
     id="path106"
     inkscape:connector-curvature="0"
     style="fill:#231f20" />
  <path
     class="cls-1"
     d="m 820.80764,291.63764 c 0,-7.19 -0.06,-15.5 -0.08,-24.66 l 7,11.9 c 0,0.31 0,0.62 0,0.94 z"
     id="path108"
     inkscape:connector-curvature="0"
     style="fill:#231f20" />
</svg>
