<?xml version="1.0" encoding="utf-8"?>
<!-- Generator: Adobe Illustrator 25.3.1, SVG Export Plug-In . SVG Version: 6.00 Build 0)  -->
<svg version="1.1" id="Calque_1" xmlns="http://www.w3.org/2000/svg" xmlns:xlink="http://www.w3.org/1999/xlink" x="0px" y="0px"
	 viewBox="0 0 85.6 21" style="enable-background:new 0 0 85.6 21;" xml:space="preserve">
<style type="text/css">
	.st0{fill:#FFFFFF;}
</style>
<path class="st0" d="M10.5,0C4.7,0,0,4.7,0,10.5c0,4.6,3,8.7,7.3,10c0.2,0,0.4,0,0.6-0.1H8l0,0c0.7-0.3,1.2-1,1.2-1.7v-6.6H7
	c-0.7,0-1.3-0.6-1.3-1.3S6.3,9.5,7,9.5l0,0h7c0.7,0,1.3,0.6,1.3,1.3s-0.6,1.3-1.3,1.3h-2.2v6.6c0,0.8,0.5,1.5,1.3,1.8l0,0l0,0l0,0
	c0.1,0,0.2,0.1,0.4,0.1c0.1,0,0.1,0,0.2,0c5.5-1.8,8.6-7.7,6.8-13.2C19.1,3,15.1,0,10.5,0z M3.1,12.2c-0.7,0-1.3-0.6-1.3-1.3
	s0.6-1.3,1.3-1.3s1.3,0.6,1.3,1.3l0,0C4.4,11.6,3.8,12.2,3.1,12.2z M10.5,7.6C9.1,7.6,8,6.5,8,5.1s1.1-2.5,2.5-2.5S13,3.7,13,5.1
	l0,0C13,6.5,11.9,7.6,10.5,7.6z M18,12.2c-0.7,0-1.3-0.6-1.3-1.3s0.6-1.3,1.3-1.3s1.3,0.6,1.3,1.3l0,0C19.2,11.6,18.7,12.2,18,12.2
	L18,12.2z"/>
<g id="Calque_2_1_">
	<g id="Calque_1-2">
		<path class="st0" d="M33.7,15.2c-0.4,0.2-0.8,0.4-1.2,0.5c-0.5,0.1-0.9,0.1-1.4,0.1c-0.9,0.1-1.7-0.3-2.3-0.8
			c-0.6-0.6-0.9-1.4-0.9-2.3V10h-1.4V7.9h1.4V6H31v1.9h2.5V10H31v2.3c0,0.7,0.3,1,0.8,1c0.4,0,0.9-0.1,1.2-0.3L33.7,15.2z"/>
		<path class="st0" d="M43,7.3c0.9,1.1,1.4,2.4,1.3,3.8c0,0.3,0,0.5,0,0.5h-6.8c0.1,0.5,0.4,0.9,0.8,1.3c0.4,0.3,0.9,0.5,1.4,0.5
			c0.4,0,0.8-0.1,1.2-0.3c0.4-0.1,0.7-0.4,1.1-0.7l1.7,1.7c-0.5,0.5-1.1,1-1.8,1.3c-0.7,0.3-1.6,0.5-2.4,0.4c-0.9,0-1.9-0.2-2.7-0.6
			c-0.7-0.4-1.4-1-1.8-1.7c-0.4-0.8-0.6-1.7-0.6-2.6s0.2-1.8,0.6-2.6c0.4-0.7,1-1.4,1.8-1.8C37.6,6.2,38.5,6,39.5,6
			C40.7,5.8,42,6.4,43,7.3z M41.2,10c0-0.5-0.1-1-0.5-1.4c-0.7-0.7-1.8-0.7-2.6,0C37.8,9,37.5,9.5,37.4,10H41.2z"/>
		<path class="st0" d="M50.3,6.4c0.6-0.3,1.2-0.5,1.8-0.5v2.9c-0.1,0-0.3,0-0.5,0c-0.7,0-1.3,0.1-1.8,0.5c-0.5,0.3-0.7,0.9-0.8,1.4
			v4.9h-3.2V6H49v1.6C49.4,7.1,49.9,6.7,50.3,6.4z"/>
		<path class="st0" d="M62.5,6.9c0.7,0.7,1,1.7,0.9,2.7v6.1h-3.2v-5.2c0-0.5-0.1-0.9-0.5-1.3c-0.3-0.3-0.7-0.5-1.1-0.5
			c-0.5,0-0.9,0.2-1.3,0.5s-0.5,0.8-0.6,1.4v5.1h-3.2V6h3.2v1.6c0.3-0.5,0.8-0.9,1.4-1.3C58.7,6,59.3,5.9,60,5.9
			C60.9,5.9,61.8,6.2,62.5,6.9z"/>
		<path class="st0" d="M72.9,6.6c0.7,0.4,1.4,1,1.9,1.8c0.9,1.6,0.9,3.6,0,5.2c-0.5,0.7-1.1,1.4-1.9,1.8c-1.8,0.8-3.8,0.8-5.5,0
			c-0.7-0.4-1.4-1-1.8-1.8c-0.9-1.6-0.9-3.6,0-5.2c0.4-0.7,1.1-1.4,1.8-1.8C69,5.7,71.1,5.7,72.9,6.6z M68.6,9.1
			c-0.4,0.5-0.6,1.1-0.5,1.8c0,0.6,0.2,1.3,0.5,1.8c0.8,0.8,2.1,0.9,2.9,0.1l0.1-0.1c0.4-0.5,0.6-1.1,0.5-1.8c0-0.6-0.2-1.2-0.6-1.8
			c-0.7-0.8-2-0.9-2.8-0.1C68.7,9.1,68.6,9.1,68.6,9.1z"/>
		<path class="st0" d="M84.4,6.9c0.7,0.6,1.1,1.6,1.1,2.6v6.3h-3.1v-1.1c-0.7,0.9-1.8,1.3-2.9,1.2c-0.9,0.1-1.8-0.3-2.4-0.8
			c-0.6-0.5-0.9-1.4-0.9-2.2c-0.1-0.8,0.3-1.6,0.9-2.2C78,10.2,79,9.9,80,9.9h2.5V9.8c0-0.4-0.1-0.8-0.5-1.1
			c-0.4-0.3-0.9-0.4-1.4-0.3c-0.5,0-0.9,0.1-1.4,0.2c-0.5,0.1-1,0.3-1.6,0.5L76.9,7c0.7-0.3,1.5-0.6,2.2-0.8
			c0.7-0.2,1.5-0.3,2.2-0.3C82.5,5.8,83.5,6.2,84.4,6.9z M81.7,13.3c0.3-0.2,0.6-0.5,0.7-0.9v-0.9h-1.9c-0.9,0-1.4,0.3-1.4,1
			c0,0.3,0.1,0.6,0.4,0.8c0.3,0.2,0.6,0.3,0.9,0.3C81,13.7,81.4,13.6,81.7,13.3L81.7,13.3z"/>
	</g>
</g>
</svg>
