<?xml version="1.0" encoding="UTF-8"?>
<svg width="209px" height="181px" viewBox="0 0 209 181" version="1.1" xmlns="http://www.w3.org/2000/svg" xmlns:xlink="http://www.w3.org/1999/xlink">
    <title>Artboard</title>
    <g id="Artboard" stroke="none" stroke-width="1" fill="none" fill-rule="evenodd">
        <g id="polkadex" transform="translate(18.000000, 74.000000)" fill-rule="nonzero">
            <g id="Icon">
                <g id="Letter" transform="translate(18.353757, 18.334754) rotate(180.000000) translate(-18.353757, -18.334754) translate(0.853757, 0.834754)" fill="#000000">
                    <polygon id="Path_1" points="0 4.67756831 0 9.43125683 8.05605405 17.6518579 12.9081892 17.6518579"></polygon>
                    <polygon id="Path_3" points="34.6645676 29.5660109 34.6645676 24.8123224 26.6085135 16.5917213 21.7563784 16.5917213"></polygon>
                    <polygon id="Path_4" transform="translate(17.530270, 28.118866) rotate(90.000000) translate(-17.530270, -28.118866) " points="24.0549014 15.2161634 24.0549014 19.9184607 15.9108031 28.0501904 24.0549014 36.1083256 24.0549014 41.0215688 11.0056391 28.0501904"></polygon>
                    <polygon id="Path_5" transform="translate(16.738703, 6.524631) rotate(-90.000000) translate(-16.738703, -6.524631) " points="23.2633339 19.4273339 23.2633339 14.7256041 15.1192355 6.59387439 23.2633339 -1.46426074 23.2633339 -6.37807156 10.2140716 6.59387439"></polygon>
                </g>
                <ellipse id="Ellipse" fill="#E6007A" cx="18.5862703" cy="18.947541" rx="2.19175676" ry="2.21571038"></ellipse>
            </g>
            <g id="Name" transform="translate(47.000000, 4.000000)">
                <path d="M122.563647,18.2469375 C123.303447,18.2114933 124.015956,18.5250586 124.480887,19.0906875 C124.939602,19.6531875 125.087092,20.336375 124.923356,21.14025 C124.740283,21.9552409 124.270371,22.680905 123.596139,23.1898125 C122.958314,23.7026586 122.159553,23.9837448 121.334862,23.9855625 C120.515545,23.9855625 119.884811,23.7203125 119.442661,23.1898125 C119.00051,22.6593125 118.877421,21.9761875 119.073394,21.1404375 C119.237663,20.3358504 119.680501,19.6117444 120.326835,19.090875 C120.941544,18.5497189 121.737714,18.2493278 122.563647,18.2469375 Z" id="dot" fill="#E6007A"></path>
                <path d="M113.5,16.715625 L116.154434,21.3256875 C116.263249,21.4633804 116.331474,21.6277189 116.351682,21.8008125 C116.362762,21.9610738 116.344507,22.1219868 116.297783,22.2759375 C116.184955,22.7245957 115.919178,23.1219379 115.544534,23.4020625 C115.198839,23.7071966 114.753833,23.8818438 114.288991,23.894814 C114.075076,23.8951476 113.864801,23.8405232 113.67909,23.736375 C113.488025,23.6310538 113.32751,23.4796545 113.212729,23.2965 L110.880925,19.3550625 L106.935398,23.2963125 C106.748524,23.51191 106.507338,23.6757224 106.235856,23.7714375 C106.02271,23.8467534 105.798709,23.8883353 105.572248,23.894625 C105.175835,23.8997474 104.801474,23.7160883 104.567852,23.401875 C104.307645,23.0864266 104.214545,22.6689712 104.316705,22.27575 C104.361456,22.1203082 104.415383,21.9675504 104.478211,21.81825 C104.571464,21.6324525 104.699222,21.4653457 104.854931,21.3255 L109.446483,16.7506875 L107.043005,12.5983125 C106.923634,12.2955978 106.898686,11.9649053 106.97133,11.64825 C107.074508,11.1907365 107.341832,10.7848251 107.72458,10.5045 C108.074643,10.2087017 108.518249,10.0408311 108.980122,10.029375 C109.187914,10.033499 109.391448,10.0879243 109.57263,10.1878125 C109.77134,10.2892066 109.938618,10.4411312 110.056957,10.6276875 L112.065749,14.111625 L115.579702,10.6276875 C115.770075,10.4406386 115.995379,10.2912956 116.24331,10.1878125 C116.451512,10.0920672 116.677152,10.0381954 116.906919,10.029375 C117.322856,10.0223061 117.716797,10.2122192 117.965214,10.5395625 C118.234983,10.857253 118.334868,11.2817712 118.234327,11.6833125 C118.134277,12.0349551 117.935609,12.3519824 117.660933,12.5983125 L113.5,16.715625 Z" id="x" fill="#000000"></path>
                <path d="M96.4606269,23.8944375 C95.5563436,23.9157885 94.6595406,23.7289832 93.8421254,23.349 C93.125686,23.0061515 92.5088432,22.4917585 92.0485474,21.8533125 C91.5819925,21.1903529 91.2752623,20.431974 91.1515673,19.6355625 C91.0098351,18.7459291 91.0463869,17.8377151 91.2591743,16.9618125 C91.4685292,15.9915001 91.8316259,15.0593753 92.3352446,14.199375 C92.8174593,13.3672455 93.4354946,12.6183107 94.1647554,11.982375 C94.8914211,11.3550943 95.722668,10.8551163 96.622133,10.5043125 C97.5634973,10.136831 98.5684813,9.95161068 99.5816131,9.958875 C100.4374,9.93374993 101.29007,10.0711453 102.092699,10.3635 C102.699836,10.5914819 103.245843,10.9525463 103.689029,11.419125 C104.074045,11.8343806 104.334707,12.3458625 104.442278,12.8971875 C104.549876,13.4499842 104.543768,14.0183019 104.424312,14.56875 C104.29266,15.1369737 104.062089,15.678664 103.742737,16.17 C103.403972,16.7022729 102.980029,17.1775465 102.487194,17.5775625 C101.957084,18.0037015 101.356108,18.3370757 100.710627,18.5630625 C100.003418,18.8137793 99.2563407,18.9389211 98.504396,18.932625 C98.1987179,18.931533 97.8933344,18.9138811 97.5896407,18.87975 C97.288001,18.8497653 96.9920892,18.7787075 96.7104358,18.668625 C96.4587996,18.572337 96.2451085,18.399692 96.1005352,18.175875 C95.9479517,17.8888658 95.9095978,17.5564546 95.9929281,17.24325 C96.1053731,16.8165797 96.3422374,16.4313481 96.6745031,16.13475 C97.0058565,15.8056896 97.4585562,15.6217359 97.9300459,15.6245625 C98.1653264,15.6186741 98.3987453,15.6668982 98.6116208,15.765375 C98.861803,15.8657547 99.1306133,15.9137181 99.4008028,15.9061875 C99.8395597,15.9210656 100.266052,15.7625994 100.584671,15.4663125 C100.84649,15.2514991 101.034379,14.9626779 101.122706,14.63925 C101.192041,14.2557682 101.056708,13.8641309 100.763953,13.6010625 C100.453045,13.2843125 99.8432085,13.1259375 98.9344419,13.1259375 C97.8735278,13.110385 96.8513339,13.5165798 96.1005352,14.2520625 C95.3220999,14.9839525 94.7848861,15.9277321 94.558104,16.9618125 C94.3189348,18.0175625 94.4208716,18.9090625 94.8639144,19.6363125 C95.3069572,20.3635625 96.0423038,20.7271875 97.0699541,20.7271875 C97.6244297,20.7376637 98.1765982,20.654319 98.7022171,20.4808125 C99.2543624,20.2678986 99.7688837,19.971012 100.226873,19.6010625 C100.572567,19.2959284 101.017574,19.1212812 101.482416,19.1083125 C101.867673,19.0989899 102.236675,19.2605938 102.486812,19.5481875 C102.753117,19.8537795 102.847237,20.2692043 102.737959,20.6566875 C102.683041,20.8612334 102.598462,21.0569818 102.486812,21.2379375 C102.357096,21.4502927 102.200386,21.6456085 102.020451,21.8191875 C101.272242,22.5453119 100.364017,23.093146 99.3658257,23.4204375 C98.4294419,23.7296166 97.4486153,23.8896442 96.4606269,23.8944375 Z" id="e" fill="#000000"></path>
                <path d="M87.3490061,19.6010625 C87.3012232,19.7885625 87.2533767,19.9823125 87.2054664,20.1823125 C87.1692448,20.3438464 87.1212755,20.5026276 87.0619266,20.6574375 C87.280876,20.4722918 87.5293422,20.3236882 87.7974006,20.2175625 C88.009409,20.1382281 88.2341108,20.0965161 88.4610092,20.094375 C88.82964,20.0783877 89.1857879,20.2271867 89.4294725,20.499 C89.6732194,20.7881946 89.7539364,21.1775717 89.6446865,21.5371875 C89.5265324,21.93348 89.3318735,22.3038159 89.071292,22.6280625 C88.6635351,23.0738927 88.1531361,23.4177433 87.5825688,23.631 C87.1284259,23.7955715 86.6493751,23.8843009 86.1653287,23.8935 C85.4000382,23.8935 84.8081677,23.7175625 84.3897171,23.3656875 C83.9712666,23.0138125 83.7380861,22.4859375 83.6901758,21.7820625 C83.0618408,22.403143 82.3349543,22.9201086 81.537844,23.3128125 C80.747235,23.7002655 79.874579,23.8992199 78.9908257,23.8935 C78.2090194,23.9212633 77.4324343,23.7579956 76.7308869,23.418375 C76.1628283,23.1302473 75.6946806,22.6832619 75.3857034,22.134 C75.0762265,21.5570516 74.8987458,20.9208291 74.8656346,20.2696875 C74.8227142,19.5126141 74.8952518,18.7534968 75.0808486,18.0174375 C75.2930218,17.0227212 75.6494093,16.0629659 76.1391437,15.1674375 C76.6411809,14.222478 77.2684361,13.3468201 78.0045872,12.56325 C78.7233551,11.79693 79.5731005,11.1597211 80.5154817,10.680375 C81.4392568,10.2044151 82.4674609,9.95675336 83.5108945,9.958875 C84.5631371,9.958875 85.3404052,10.3576875 85.8426988,11.1553125 L87.9233563,1.5834375 C88.0162373,1.10779073 88.2924613,0.685578942 88.6945719,0.404625 C89.0538957,0.146263946 89.4866698,0.00476869876 89.9321483,-1.63856559e-14 C90.3316323,-0.0117879894 90.7192734,0.133947309 91.0084098,0.404625 C91.2953619,0.674375 91.3790775,1.0673125 91.2595566,1.5834375 L87.3490061,19.6010625 Z M82.8291284,13.1261133 C82.2605841,13.1245105 81.7045799,13.2899972 81.2327982,13.60125 C80.7294876,13.9297112 80.2816659,14.333406 79.905581,14.7976875 C79.5117404,15.277466 79.1803776,15.8035188 78.9191514,16.3636875 C78.6717845,16.8791615 78.4910395,17.4229357 78.3811162,17.982375 C78.3110472,18.3182519 78.2750029,18.6601023 78.2735092,19.0029375 C78.2680988,19.3054216 78.3292493,19.6054929 78.4527905,19.8826875 C78.5672819,20.134897 78.7542588,20.3488812 78.9908257,20.4984375 C79.2844218,20.6646705 79.6207401,20.7441085 79.959289,20.7271875 C80.5009776,20.7294226 81.0334457,20.5896947 81.5017202,20.3225625 C81.9898981,20.0447689 82.4265695,19.6878429 82.7931957,19.2669375 C83.1783963,18.8288673 83.5039425,18.3435549 83.761659,17.8231875 C84.0178224,17.3140361 84.2103486,16.7763913 84.3350535,16.2219375 C84.5299268,15.5104621 84.5112106,14.7589165 84.2811544,14.057625 C84.0545999,13.436625 83.5705912,13.1261133 82.8291284,13.1261133 Z" id="d" fill="#000000"></path>
                <path d="M71.0990061,19.5658125 C71.0512232,19.7769375 70.9973879,19.9939375 70.9375,20.2168125 C70.8986636,20.3797201 70.8445994,20.5387682 70.7759939,20.6919375 L70.9552752,20.551125 C71.3096311,20.2647862 71.7518406,20.103652 72.210818,20.093625 C72.5794489,20.0776377 72.9355968,20.2264367 73.1792813,20.49825 C73.4230282,20.7874446 73.5037453,21.1768217 73.3944954,21.5364375 C73.2820395,21.942279 73.0730124,22.3161471 72.7845948,22.6273125 C72.3648951,23.0344266 71.8725225,23.3624336 71.3319954,23.595 C70.8844898,23.7858627 70.4028616,23.8878271 69.9149465,23.8950818 C68.5515418,23.8950818 67.7623598,23.29675 67.5474006,22.10025 C66.9364698,22.6328634 66.2469785,23.0718222 65.5022936,23.40225 C64.7583048,23.7312786 63.9508321,23.8993354 63.1347477,23.8950818 C62.2259811,23.8950818 61.478657,23.736625 60.8927752,23.419875 C60.3296949,23.1250183 59.863291,22.6796979 59.5475917,22.1355 C59.2266915,21.5617628 59.0427251,20.9240557 59.0095566,20.2704375 C58.9666363,19.5133641 59.0391738,18.7542468 59.2247706,18.0181875 C59.4358025,17.0256389 59.7859027,16.0665329 60.2650994,15.1681875 C60.7586915,14.2182605 61.3866512,13.3415293 62.1303517,12.564 C62.8581152,11.7999347 63.7133971,11.1632422 64.6594037,10.6813125 C65.5949187,10.2025093 66.6353891,9.9548481 67.6905581,9.9598125 C68.5161544,9.93090551 69.3227119,10.207208 69.9504969,10.734 C70.1524954,10.4858258 70.4103062,10.2868843 70.7037462,10.15275 C70.9727364,10.027796 71.2662252,9.96176806 71.5638379,9.95925 C71.946945,9.94992773 72.3169422,10.0963632 72.5862003,10.363875 C72.8611748,10.633625 72.9389016,11.0383125 72.8193807,11.5779375 L71.0990061,19.5658125 Z M67.008792,13.125926 C66.4402495,13.1243345 65.8842486,13.2898202 65.4124618,13.6010625 C64.9093803,13.9297563 64.4618176,14.33364 64.0860092,14.7980625 C63.6921669,15.2778399 63.360804,15.8038929 63.0995795,16.3640625 C62.8522126,16.8795365 62.6714676,17.4233107 62.5615443,17.98275 C62.4914753,18.3186269 62.455431,18.6604773 62.4539373,19.0033125 C62.4485269,19.3057966 62.5096774,19.6058679 62.6332187,19.8830625 C62.7477101,20.135272 62.9346869,20.3492562 63.1712538,20.4988125 C63.4529144,20.6623137 63.7770196,20.7418005 64.1039755,20.7275625 C64.6372252,20.7257742 65.1614783,20.5926397 65.6286315,20.340375 C66.1232036,20.0789185 66.5665054,19.7333641 66.9378823,19.3198125 C67.3301112,18.8833097 67.6617946,18.397854 67.9243119,17.8760625 C68.1939292,17.352221 68.3930955,16.7962642 68.5168196,16.222125 C68.7117548,15.5106676 68.693105,14.7591221 68.4631116,14.0578125 C68.2354103,13.4365625 67.7508919,13.125926 67.0095566,13.125926 L67.008792,13.125926 Z" id="a" fill="#000000"></path>
                <path d="M50.6519495,20.868 C50.4128608,20.4145241 50.2089822,19.9440018 50.0420489,19.4604375 C49.8512969,18.9294273 49.8140535,18.3569914 49.9344419,17.8065 C50.0563796,17.3337946 50.3416318,16.9171936 50.7415902,16.6276875 C51.2253015,16.269402 51.7348559,15.9459917 52.2662462,15.66 C52.7346542,15.4055526 53.1536061,15.0719987 53.5038226,14.6746875 C53.7792067,14.3840902 53.9820367,14.0347264 54.0963303,13.654125 C54.1680683,13.30225 53.8930301,13.1263125 53.2712156,13.1263125 C52.7789818,13.1289392 52.2918579,13.2244238 51.8363914,13.4075625 C51.3334278,13.611256 50.8763219,13.9102032 50.491208,14.2873125 C50.0385805,14.730277 49.6521062,15.2338284 49.3432722,15.783 C48.9718138,16.4478092 48.7111922,17.1666471 48.571292,17.91225 L47.6385703,22.311 C47.5515321,22.8028452 47.2588985,23.2366164 46.831422,23.5074375 C46.4534325,23.7533883 46.0114378,23.8877689 45.5579128,23.894625 C45.1780734,23.9047835 44.8098965,23.7653482 44.5355505,23.5074375 C44.2605759,23.2493125 44.1828491,22.8505 44.30237,22.311 L48.1406728,4.575 C48.2651183,3.86451619 48.4821091,3.17266377 48.786315,2.5164375 C49.0034781,2.04957973 49.3146319,1.63062156 49.7010703,1.28475 C50.0460267,0.992368252 50.4585076,0.786989153 50.9027141,0.6864375 C51.4208659,0.574207832 51.9504942,0.521043293 52.481078,0.528 L52.8038991,0.528 C53.2006869,0.498761341 53.5810424,0.688759866 53.7903287,1.02075 C53.9932531,1.34722361 54.0636588,1.73660135 53.9875765,2.111625 C53.8706001,2.52218333 53.6410703,2.89340048 53.3239679,3.184875 C53.0122742,3.51021716 52.5774508,3.69483215 52.1223242,3.6950625 L51.7995031,3.6950625 C51.727765,3.6950625 51.6739297,3.7654375 51.6379969,3.9061875 C51.6020642,4.0469375 51.5602064,4.222875 51.5124235,4.434 L49.8631498,11.9295 C50.5416077,11.3445152 51.302653,10.8587484 52.1227064,10.48725 C52.8053366,10.1601422 53.5513688,9.97999062 54.3107798,9.958875 C55.3869776,9.958875 56.2478976,10.2755625 56.8935398,10.9089375 C57.539182,11.5423125 57.7424822,12.375125 57.5034404,13.407375 C57.2613636,14.4420722 56.7341476,15.3916323 55.9793578,16.152375 C55.2195107,16.9689367 54.2813929,17.6065018 53.2350917,18.0174375 C53.3068298,18.1346875 53.4144368,18.3399375 53.5579128,18.6331875 C53.7013889,18.9264375 53.8508537,19.2255625 54.0063073,19.5305625 C54.14453,19.8075166 54.3065586,20.0724123 54.4906346,20.322375 C54.6580657,20.54525 54.8135194,20.6566875 54.9569954,20.6566875 C55.1622911,20.5071554 55.3780356,20.3719479 55.6026376,20.2520625 C55.8327007,20.1253824 56.0920602,20.0587563 56.3558869,20.0585625 C56.729298,20.0448668 57.0899841,20.1928172 57.3423165,20.4631875 C57.5934633,20.7329375 57.6592125,21.0906875 57.5395642,21.5364375 C57.4657438,21.9157533 57.2784372,22.2649068 57.0015291,22.539375 C56.7247732,22.8245066 56.4112094,23.0729238 56.0688073,23.2783125 C55.7534491,23.4689123 55.416335,23.622467 55.0644113,23.7358125 C54.7989768,23.8287331 54.5208547,23.8821377 54.2392966,23.89425 C53.7937129,23.9064355 53.3513933,23.8162879 52.94763,23.631 C52.5927192,23.4578163 52.2710688,23.2256344 51.9969419,22.94475 C51.7133764,22.6520705 51.4664688,22.3272061 51.2614679,21.9770625 C51.0463812,21.6130625 50.8432085,21.243375 50.6519495,20.868 Z" id="k" fill="#000000"></path>
                <path d="M43.9795489,3.6245625 C43.9078109,3.6245625 43.8539755,3.6949375 43.8180428,3.8356875 L43.6924694,4.3284375 L40.392393,19.6010625 C40.3446101,19.7885625 40.2967635,19.9823125 40.2488532,20.1823125 C40.2126355,20.3438473 40.164666,20.5026289 40.1053135,20.6574375 C40.3011001,20.4517239 40.5396669,20.2896905 40.8048547,20.1823125 C41.0168631,20.1029781 41.2415649,20.0612661 41.4684633,20.059125 C41.8467004,20.0476511 42.2120041,20.1948152 42.4728593,20.46375 C42.7359837,20.7335 42.8077217,21.09125 42.6880734,21.537 C42.6120232,21.9207026 42.4252813,22.2749207 42.1500382,22.5575625 C41.7575571,23.0364088 41.2443753,23.4063718 40.661315,23.6308125 C40.183763,23.8004035 39.6804444,23.8896586 39.1725917,23.8948125 C38.1914501,23.8948125 37.4978976,23.6073125 37.0919343,23.0323125 C36.6859709,22.4573125 36.6142966,21.513 36.8769113,20.199375 L40.3207187,4.434 C40.4430435,3.72862566 40.6601487,3.04227201 40.9663609,2.392875 C41.1865885,1.93291409 41.497487,1.52028989 41.8811162,1.1788125 C42.2312135,0.883875228 42.6501608,0.678349384 43.1007263,0.5805 C43.6250687,0.468958684 44.1605658,0.41581002 44.6970566,0.4220625 L44.9837538,0.4220625 C45.378165,0.404032063 45.7530553,0.591300554 45.9701835,0.9148125 C46.1954419,1.23262115 46.267523,1.63126456 46.1674312,2.0056875 C46.0652017,2.43153894 45.8262826,2.81393403 45.4858563,3.0965625 C45.1652948,3.42215222 44.7274896,3.61162184 44.2662462,3.624375 L43.9795489,3.6245625 Z" id="l" fill="#000000"></path>
                <path d="M20.6267202,16.9618125 C20.8424395,15.998869 21.2312161,15.0812986 21.7748471,14.2520625 C22.865773,12.5713454 24.4649236,11.2671645 26.3486239,10.5219375 C27.2648657,10.1522782 28.2457288,9.9612212 29.2364297,9.9594375 C30.1652136,9.94319033 31.0854772,10.1355984 31.9267966,10.5219375 C32.6835443,10.8718603 33.346781,11.389929 33.8639144,12.0350625 C34.3755218,12.6883305 34.7310458,13.4459724 34.9042431,14.2520625 C35.0948024,15.1470234 35.0822083,16.0721629 34.8673547,16.9618125 C34.6541477,17.9199393 34.2655989,18.8321975 33.7205657,19.6543125 C33.1747853,20.4824548 32.5034599,21.224105 31.7297401,21.8536875 C30.9559609,22.4845897 30.0836893,22.9891707 29.1464067,23.3480625 C28.2154312,23.7091925 27.2232094,23.8941873 26.2220948,23.8935 C25.3071861,23.9070275 24.4006684,23.7207145 23.5682339,23.3480625 C22.8100207,23.0084355 22.1457785,22.4955608 21.6311162,21.852375 C21.1221487,21.2046512 20.7668141,20.4537431 20.5909786,19.6543125 C20.4000001,18.7652416 20.4122065,17.8457033 20.6267202,16.9618125 Z M31.531919,16.9618125 C31.6508518,16.4772308 31.6631017,15.9733426 31.5678517,15.48375 C31.4821654,15.0365137 31.2918381,14.6148895 31.0118502,14.2520625 C30.7363953,13.8997665 30.3799186,13.6163672 29.9715214,13.425 C29.5288264,13.2200514 29.0441183,13.1174212 28.5546636,13.125 C28.0255459,13.1258561 27.5016582,13.2277513 27.0122324,13.425 C26.5090019,13.6250293 26.0424804,13.9043993 25.6311162,14.2520625 C25.2104473,14.6063935 24.847497,15.0217586 24.5548547,15.48375 C24.2621378,15.9381986 24.0498568,16.4379298 23.9269878,16.9618125 C23.6878186,18.0175625 23.8552497,18.9088125 24.4292813,19.6355625 C25.0033129,20.3623125 25.8283639,20.7259375 26.9044343,20.7264375 C27.433552,20.7255814 27.9574397,20.6236862 28.4468654,20.4264375 C28.9470756,20.2281926 29.4129696,19.9551439 29.8279817,19.617 C30.2477797,19.2753754 30.6108153,18.8717314 30.904052,18.4205625 C31.1984058,17.9739263 31.4108938,17.4802439 31.531919,16.9618125 Z" id="o" fill="#000000"></path>
                <path d="M7.71292049,17.982375 L6.42144495,17.982375 C5.8713685,17.982375 5.47674567,17.818125 5.23757645,17.489625 C4.99658894,17.1510617 4.93029754,16.7216295 5.05829511,16.32825 C5.14886946,15.8970828 5.38217157,15.507372 5.72190367,15.21975 C6.09587018,14.8784793 6.5917123,14.6952799 7.10225535,14.70975 L8.39430428,14.70975 L9.72075688,8.727375 C9.81351078,8.22838272 10.1036595,7.7856233 10.5279052,7.4956875 C10.9095404,7.22594825 11.3668114,7.07847253 11.837156,7.0734375 C12.2272596,7.06692668 12.6055151,7.2049894 12.8964067,7.4600625 C13.1953364,7.7181875 13.2850408,8.1405 13.1655199,8.727 L11.8381116,14.70975 L13.1295872,14.70975 C13.7439592,14.7165932 14.3516348,14.5840842 14.9051988,14.3225625 C15.4338013,14.070998 15.9181519,13.7383882 16.3400229,13.33725 C16.7593881,12.9373426 17.1106285,12.4740163 17.3803517,11.9649375 C17.6493653,11.4655223 17.8486558,10.9328686 17.9728593,10.3813125 C18.0674803,9.88264195 18.0975982,9.37425364 18.0625,8.8681875 C18.0339729,8.40144313 17.905617,7.94581597 17.6857798,7.5309375 C17.4699193,7.13147972 17.1475429,6.79701809 16.7530581,6.56325 C16.28416,6.30123269 15.7498561,6.17321487 15.2106269,6.1936875 L8.35856269,6.1936875 C7.88275934,6.19581096 7.40827486,6.24296696 6.94170489,6.3345 C6.45250865,6.42797789 5.98071757,6.59414039 5.54262232,6.82725 C5.10784301,7.05586639 4.71890988,7.3599068 4.39468654,7.724625 C4.05936422,8.11336954 3.83092761,8.57976355 3.73107798,9.0795 C3.60635767,9.57710229 3.67006594,10.1022039 3.91035933,10.5571875 C4.13101438,10.9737413 4.38278474,11.3737081 4.66360856,11.7538125 C5.00703792,12.0964183 5.14307559,12.5901302 5.02236239,13.0558125 C4.91674901,13.4944364 4.67178013,13.8887886 4.3228211,14.1819375 C3.97863074,14.5000002 3.5231144,14.6763152 3.05026758,14.6745 C2.64520436,14.6749357 2.25240862,14.5381684 1.93826453,14.2873125 C1.26309122,13.6694136 0.757079653,12.8949331 0.466743119,12.0350625 C0.152301399,11.0797131 0.102758625,10.0594707 0.323203364,9.079125 C0.521194031,8.13194421 0.924987633,7.23776095 1.50707187,6.4575 C2.07542342,5.70032059 2.77325072,5.04550482 3.56957187,4.522125 C4.37922107,3.99041546 5.26893778,3.58668846 6.20623089,3.3256875 C7.1387333,3.05929727 8.10483621,2.92308429 9.07607034,2.9210625 L15.7123471,2.9210625 C16.955976,2.9210625 17.990316,3.1439375 18.815367,3.5896875 C19.5956582,3.994211 20.2519182,4.59547955 20.716552,5.3315625 C21.1647587,6.06470209 21.4348003,6.88926824 21.5057339,7.7413125 C21.5885636,8.64743103 21.5341377,9.56058789 21.3442278,10.4510625 C21.1185084,11.4165666 20.7563134,12.3463767 20.2681575,13.2135 C19.7724184,14.108438 19.1369945,14.9217739 18.3849388,15.624 C17.6140396,16.3390298 16.7217423,16.9164583 15.7482798,17.33025 C14.7068334,17.7716803 13.5824449,17.9934735 12.4480122,17.98125 L11.1565367,17.98125 L10.7977829,19.6363125 C10.659957,20.2064847 10.4613612,20.7608488 10.2052752,21.29025 C9.96384574,21.7929026 9.63626992,22.2511794 9.23681193,22.645125 C8.82660794,23.0422635 8.3384707,23.353553 7.80198777,23.560125 C7.1665055,23.79577 6.49074199,23.9092704 5.81154434,23.8944375 C5.25873861,23.8835509 4.70985398,23.8007018 4.17928135,23.6480625 C3.55235225,23.469914 3.03528622,23.0332879 2.76242355,22.451625 C2.55519642,22.1399043 2.47813756,21.7619306 2.54720948,21.396 C2.66437799,20.9303851 2.94373371,20.5195784 3.33696483,20.234625 C3.71414117,19.939699 4.18185079,19.7784766 4.66418196,19.777125 C5.10164956,19.7698706 5.52067873,19.9497383 5.81211774,20.269875 C5.96135439,20.4953974 6.21911278,20.6288893 6.49311927,20.6225625 C6.74923007,20.6114436 6.97432239,20.4526036 7.06651376,20.2179375 C7.20998981,19.9481875 7.377421,19.391 7.56880734,18.546375 L7.71292049,17.982375 Z" id="p" fill="#000000"></path>
            </g>
        </g>
    </g>
</svg>