<?xml version="1.0" encoding="utf-8"?>
<!-- Generator: Adobe Illustrator 28.2.0, SVG Export Plug-In . SVG Version: 6.00 Build 0)  -->
<svg version="1.1" id="Ebene_1" xmlns="http://www.w3.org/2000/svg" xmlns:xlink="http://www.w3.org/1999/xlink" x="0px" y="0px"
	 viewBox="0 0 117.5 25" style="enable-background:new 0 0 117.5 25;" xml:space="preserve">
<style type="text/css">
	.st0{fill:#FFFFFF;}
	.st1{fill:url(#SVGID_1_);}
	.st2{fill:url(#SVGID_00000137131439805995180220000008874191256128190651_);}
</style>
<g id="Sri_Lanka">
	<path class="st0" d="M30,18.7h3V5h-3V18.7z"/>
	<path class="st0" d="M35.5,18.7h2.8v-4.6c0-1,0-3.1,1.9-3.1c0.9,0,1.6,0.5,1.6,1.8v5.9h2.8v-6.5c0-2.2-1.2-3.6-3.3-3.6
		c-1.6,0-2.5,1.1-3,2.5H37c0.5-0.8,0.9-1.6,0.9-2.2h-2.5C35.5,8.9,35.5,18.7,35.5,18.7z"/>
	<path class="st0" d="M50.1,18.7h3.2v-2.2h-2.1c-0.6,0-0.9-0.3-0.9-0.9v-4.6h2.5V8.9h-2.5V5.9h-2.8v3.1h-2v2.1h2v5.1
		C47.6,17.7,48.5,18.7,50.1,18.7L50.1,18.7z"/>
	<path class="st0" d="M58.9,19c3,0,4.2-1.6,4.7-2.8l-2.5-1c-0.4,0.9-1,1.7-2.3,1.7s-2.1-0.7-2.2-2.4h6.9c0.3-3.3-1.4-5.8-4.7-5.8
		c-2.8,0-4.9,2.1-4.9,5.1S55.9,19,58.9,19z M56.8,12.5c0.2-1.2,0.9-1.9,2.1-1.9c1.2,0,1.9,0.7,2,1.9H56.8z"/>
	<path class="st0" d="M66.9,22.5h5c1.9,0,3.4-1.1,3.4-3c0-1.6-1.3-2.9-3.4-2.9h-4.2c-0.6,0-1,0-1-0.4c0-0.3,0.2-0.5,0.7-0.7
		c0.6,0.3,1.3,0.3,2,0.3c2.3,0,4-1.3,4.2-3.4l0-0.2c0.1-1,0.3-1.1,0.9-1.1h1.1V9h-0.5c-0.9,0-1.4,0.3-1.5,1.8h-0.8
		c-0.5-1.4-2-2-3.6-2c-2.3,0-4,1.5-4,3.5c0,1,0.4,1.5,1.1,2v0.9c-0.8,0.3-1.6,0.8-1.6,1.8c0,0.7,0.5,1.1,1.1,1.3v0.9
		c-0.7,0.2-1.3,0.8-1.3,1.6C64.5,21.6,65,22.5,66.9,22.5L66.9,22.5z M69.5,13.9c-1,0-1.7-0.7-1.7-1.7s0.7-1.8,1.7-1.8
		s1.7,0.7,1.7,1.8S70.5,13.9,69.5,13.9z M67.6,20.5c-0.5,0-1-0.3-1-0.9c0-0.4,0.3-0.7,0.5-0.9h4.3c0.9,0,1.2,0.4,1.2,0.9
		c0,0.5-0.3,0.9-1.2,0.9H67.6z"/>
	<path class="st0" d="M76.9,18.7h2.8V15c0-2.6,0.9-3.4,2.9-3.4c0.3,0,0.7,0,1.1,0.1V8.8c-0.2,0-0.3,0-0.6,0c-2.1,0-2.9,1.1-3.3,3.2
		h-1.2c0.4-0.7,0.8-1.9,0.8-3h-2.5L76.9,18.7L76.9,18.7z"/>
	<path class="st0" d="M84.7,7.6h2.9V5h-2.9V7.6z M84.8,18.7h2.8V8.9h-2.8V18.7z"/>
	<path class="st0" d="M93.3,18.7h3.2v-2.2h-2.1c-0.6,0-0.9-0.3-0.9-0.9v-4.6h2.5V8.9h-2.5V5.9h-2.8v3.1h-2v2.1h2v5.1
		C90.8,17.7,91.7,18.7,93.3,18.7L93.3,18.7z"/>
	<path class="st0" d="M102.1,19c3,0,4.2-1.6,4.7-2.8l-2.5-1c-0.4,0.9-1,1.7-2.3,1.7c-1.2,0-2.1-0.7-2.2-2.4h6.9
		c0.3-3.3-1.4-5.8-4.7-5.8c-2.8,0-4.9,2.1-4.9,5.1S99.1,19,102.1,19z M100,12.5c0.2-1.2,0.9-1.9,2.1-1.9c1.2,0,1.9,0.7,2,1.9H100z"
		/>
	<path class="st0" d="M112.8,19c3,0,4.2-1.6,4.7-2.8l-2.5-1c-0.4,0.9-1,1.7-2.3,1.7s-2.1-0.7-2.2-2.4h6.9c0.3-3.3-1.4-5.8-4.7-5.8
		c-2.8,0-4.9,2.1-4.9,5.1S109.8,19,112.8,19z M110.7,12.5c0.2-1.2,0.9-1.9,2.1-1.9c1.2,0,1.9,0.7,2,1.9H110.7z"/>
	
		<linearGradient id="SVGID_1_" gradientUnits="userSpaceOnUse" x1="368.067" y1="1793.6422" x2="384.9347" y2="1793.6422" gradientTransform="matrix(1 0 0 1 -364.31 -1776.45)">
		<stop  offset="0" style="stop-color:#B000FD"/>
		<stop  offset="0.98" style="stop-color:#30DAFF"/>
	</linearGradient>
	<path class="st1" d="M3.8,9.4v11.2c0,0.1,0,0.3,0.1,0.4c0.1,0.1,0.2,0.2,0.3,0.3c1.1,0.6,4.4,2.5,6.1,3.6c0.1,0.1,0.4,0.2,0.5,0.2
		c0.6-0.3,1.2-0.7,1.8-1c-0.2-0.1-0.3-0.2-0.3-0.2c-2.2-1.3-4.3-2.5-6.5-3.8v-2.3l1.7,1c2.2,1.3,4.4,2.6,6.6,3.9
		c0.2,0.1,0.4,0.2,0.5,0.2c0.6-0.3,1.3-0.7,2-1.1L5.8,15.2V13c0.9,0.5,1.9,1.1,2.8,1.6c3.2,1.9,6.5,3.8,9.7,5.6
		c0.1,0.1,0.2,0.1,0.3,0.1s0.2,0,0.3-0.1c0.6-0.3,1.1-0.7,1.7-1l-2.3-1.3L3.8,9.4z"/>
	
		<linearGradient id="SVGID_00000052078763222185068670000013611245498873477275_" gradientUnits="userSpaceOnUse" x1="364.31" y1="1786.4514" x2="386.181" y2="1786.4514" gradientTransform="matrix(1 0 0 1 -364.31 -1776.45)">
		<stop  offset="0" style="stop-color:#B000FD"/>
		<stop  offset="0.98" style="stop-color:#30DAFF"/>
	</linearGradient>
	<path style="fill:url(#SVGID_00000052078763222185068670000013611245498873477275_);" d="M21.5,6.1c-1.4-0.8-2.9-1.6-4.3-2.5
		L15,2.3l-2,1.1c2.2,1.2,4.3,2.5,6.5,3.7c0.1,0.1,0.2,0.1,0.3,0.3c0.1,0.1,0.1,0.3,0.1,0.4v1.7l0,0c-1.1-0.6-4.4-2.4-5.5-3.1
		c-1.1-0.6-2.2-1.3-3.3-1.9L9,5.7c2.9,1.7,7.9,4.4,10.9,6.2c0,0.7,0,1.5,0,2.2c0,0-0.1,0-0.1-0.1c-4.1-2.4-10.6-6-14.7-8.4L7,4.6
		l2.1-1.2L11,2.2l2-1.1l-1.6-1C11.2,0.1,11,0,10.9,0c-0.3,0.2-0.6,0.3-1,0.5l-7,4.1l-0.1,0L2.4,4.8L0.4,6c-0.1,0-0.2,0.1-0.3,0.2
		S0,6.5,0,6.6c0,3.9,0,7.9,0,11.8c0,0.1,0,0.3,0.1,0.4c0.1,0.1,0.2,0.2,0.3,0.3C0.9,19.4,1.5,19.7,2,20v-2.6c0-0.1,0-0.1,0-0.2
		c0-3.3,0-6.5,0-9.8l1-0.6c3.6,2.1,8.4,4.8,12.6,7.2l0,0c1.3,0.7,2.5,1.4,3.7,2.1l2.5,1.4c0-3.6,0-7.3,0-10.9c0-0.1,0-0.3-0.1-0.4
		C21.7,6.2,21.6,6.1,21.5,6.1L21.5,6.1z"/>
</g>
</svg>
