<?xml version="1.0" encoding="utf-8"?>
<!-- Generator: Adobe Illustrator 24.3.0, SVG Export Plug-In . SVG Version: 6.00 Build 0)  -->
<svg version="1.1" id="Layer_1" xmlns="http://www.w3.org/2000/svg" xmlns:xlink="http://www.w3.org/1999/xlink" x="0px" y="0px"
	 viewBox="0 0 668.45 123.13" style="enable-background:new 0 0 668.45 123.13;" xml:space="preserve">
<style type="text/css">
	.st0{fill:#000563;}
</style>
<g>
	<path class="st0" d="M146.66,101.36v-9.03c0-0.33,0.28-0.61,0.61-0.61s0.61,0.28,0.61,0.61v8.92c0,3.85,2.08,6.07,5.53,6.07
		c3.32,0,5.44-2.01,5.44-5.95v-9.03c0-0.33,0.28-0.61,0.61-0.61s0.61,0.28,0.61,0.61v8.89c0,4.69-2.73,7.19-6.7,7.19
		C149.44,108.41,146.66,105.94,146.66,101.36z"/>
	<path class="st0" d="M164.4,96.74c0-0.33,0.23-0.58,0.56-0.58s0.58,0.23,0.58,0.58v1.73c0.79-1.4,2.12-2.5,4.3-2.5
		c3.01,0,4.76,2.05,4.76,4.9v6.79c0,0.35-0.23,0.58-0.56,0.58s-0.58-0.23-0.58-0.58v-6.58c0-2.45-1.38-4.06-3.78-4.06
		c-2.33,0-4.13,1.77-4.13,4.25v6.4c0,0.35-0.23,0.58-0.56,0.58s-0.58-0.23-0.58-0.58L164.4,96.74L164.4,96.74z"/>
	<path class="st0" d="M177.89,102.25v-0.05c0-3.34,2.66-6.23,6.07-6.23c2.05,0,3.41,0.89,4.48,1.89c0.09,0.09,0.16,0.26,0.16,0.42
		c0,0.33-0.26,0.58-0.58,0.58c-0.14,0-0.3-0.05-0.4-0.14c-0.96-0.91-2.08-1.68-3.69-1.68c-2.71,0-4.81,2.26-4.81,5.11v0.05
		c0,2.87,2.17,5.16,4.9,5.16c1.54,0,2.78-0.75,3.74-1.7c0.09-0.09,0.21-0.19,0.37-0.19c0.28,0,0.56,0.28,0.56,0.56
		c0,0.12-0.05,0.26-0.14,0.35c-1.19,1.21-2.57,2.05-4.6,2.05C180.53,108.44,177.89,105.59,177.89,102.25z"/>
	<path class="st0" d="M192.03,91.6c0-0.33,0.23-0.58,0.56-0.58s0.58,0.26,0.58,0.58v6.86c0.79-1.4,2.12-2.5,4.3-2.5
		c3.01,0,4.76,2.05,4.76,4.9v6.79c0,0.35-0.23,0.58-0.56,0.58s-0.58-0.23-0.58-0.58v-6.58c0-2.45-1.38-4.06-3.78-4.06
		c-2.33,0-4.13,1.77-4.13,4.25v6.4c0,0.35-0.23,0.58-0.56,0.58s-0.58-0.23-0.58-0.58L192.03,91.6L192.03,91.6z"/>
	<path class="st0" d="M205.36,104.7v-0.05c0-2.47,2.12-3.88,5.21-3.88c1.66,0,2.8,0.21,3.95,0.51v-0.51c0-2.41-1.47-3.64-3.92-3.64
		c-1.31,0-2.4,0.33-3.38,0.79c-0.09,0.05-0.19,0.07-0.26,0.07c-0.28,0-0.54-0.26-0.54-0.54s0.21-0.47,0.33-0.51
		c1.21-0.54,2.4-0.89,3.92-0.89c1.61,0,2.9,0.44,3.76,1.31c0.79,0.79,1.21,1.89,1.21,3.36v6.93c0,0.35-0.23,0.58-0.56,0.58
		s-0.56-0.23-0.56-0.58v-1.49c-0.82,1.14-2.29,2.26-4.55,2.26C207.74,108.44,205.36,107.17,205.36,104.7z M214.53,103.7v-1.35
		c-1-0.26-2.33-0.54-4.04-0.54c-2.52,0-3.92,1.12-3.92,2.78v0.05c0,1.73,1.63,2.73,3.46,2.73
		C212.45,107.36,214.53,105.87,214.53,103.7z"/>
	<path class="st0" d="M219.76,92.16c0-0.4,0.3-0.7,0.7-0.7s0.72,0.3,0.72,0.7v0.4c0,0.4-0.33,0.7-0.72,0.7c-0.4,0-0.7-0.3-0.7-0.7
		V92.16z M219.9,96.74c0-0.33,0.23-0.58,0.56-0.58s0.58,0.23,0.58,0.58v10.93c0,0.35-0.23,0.58-0.56,0.58s-0.58-0.23-0.58-0.58
		V96.74z"/>
	<path class="st0" d="M225.54,96.74c0-0.33,0.23-0.58,0.56-0.58s0.58,0.23,0.58,0.58v1.73c0.79-1.4,2.12-2.5,4.3-2.5
		c3.01,0,4.76,2.05,4.76,4.9v6.79c0,0.35-0.23,0.58-0.56,0.58s-0.58-0.23-0.58-0.58v-6.58c0-2.45-1.38-4.06-3.78-4.06
		c-2.33,0-4.13,1.77-4.13,4.25v6.4c0,0.35-0.23,0.58-0.56,0.58s-0.58-0.23-0.58-0.58L225.54,96.74L225.54,96.74z"/>
	<path class="st0" d="M247.48,105.1v-7.8h-1.28c-0.28,0-0.54-0.26-0.54-0.54s0.26-0.51,0.54-0.51h1.28v-3.32
		c0-0.33,0.23-0.58,0.56-0.58s0.58,0.26,0.58,0.58v3.32h3.74c0.28,0,0.54,0.26,0.54,0.54s-0.26,0.51-0.54,0.51h-3.74v7.68
		c0,1.7,1,2.31,2.38,2.31c0.82,0,1.19-0.23,1.35-0.23c0.26,0,0.51,0.23,0.51,0.51c0,0.23-0.14,0.4-0.37,0.49
		c-0.47,0.16-1,0.3-1.68,0.3C248.98,108.37,247.48,107.36,247.48,105.1z"/>
	<path class="st0" d="M256.19,91.6c0-0.33,0.23-0.58,0.56-0.58s0.58,0.26,0.58,0.58v6.86c0.79-1.4,2.12-2.5,4.3-2.5
		c3.01,0,4.76,2.05,4.76,4.9v6.79c0,0.35-0.23,0.58-0.56,0.58s-0.58-0.23-0.58-0.58v-6.58c0-2.45-1.38-4.06-3.78-4.06
		c-2.33,0-4.13,1.77-4.13,4.25v6.4c0,0.35-0.23,0.58-0.56,0.58s-0.58-0.23-0.58-0.58V91.6H256.19z"/>
	<path class="st0" d="M275.51,108.44c-3.13,0-5.84-2.5-5.84-6.21v-0.05c0-3.46,2.43-6.21,5.65-6.21c3.34,0,5.46,2.75,5.46,6.16
		c0,0.28-0.28,0.54-0.56,0.54h-9.34c0.21,2.96,2.33,4.69,4.67,4.69c1.7,0,2.89-0.7,3.85-1.63c0.09-0.09,0.21-0.16,0.37-0.16
		c0.3,0,0.56,0.23,0.56,0.54c0,0.12-0.05,0.26-0.19,0.4C278.99,107.67,277.66,108.44,275.51,108.44z M279.55,101.64
		c-0.16-2.4-1.54-4.62-4.27-4.62c-2.36,0-4.18,1.98-4.39,4.62H279.55z"/>
	<path class="st0" d="M295.77,108.32h-0.05c-0.33,0-0.51-0.19-0.65-0.49l-4.79-10.74c-0.05-0.12-0.09-0.23-0.09-0.35
		c0-0.33,0.26-0.58,0.61-0.58c0.35,0,0.49,0.21,0.61,0.47l4.34,10.25l4.41-10.3c0.09-0.23,0.26-0.42,0.56-0.42
		c0.33,0,0.58,0.26,0.58,0.58c0,0.12-0.02,0.19-0.07,0.3l-4.81,10.79C296.28,108.13,296.1,108.32,295.77,108.32z"/>
	<path class="st0" d="M303.14,104.7v-0.05c0-2.47,2.12-3.88,5.21-3.88c1.66,0,2.8,0.21,3.95,0.51v-0.51c0-2.41-1.47-3.64-3.92-3.64
		c-1.31,0-2.4,0.33-3.38,0.79c-0.09,0.05-0.19,0.07-0.26,0.07c-0.28,0-0.54-0.26-0.54-0.54s0.21-0.47,0.33-0.51
		c1.21-0.54,2.4-0.89,3.92-0.89c1.61,0,2.9,0.44,3.76,1.31c0.79,0.79,1.21,1.89,1.21,3.36v6.93c0,0.35-0.23,0.58-0.56,0.58
		s-0.56-0.23-0.56-0.58v-1.49c-0.82,1.14-2.29,2.26-4.55,2.26C305.52,108.44,303.14,107.17,303.14,104.7z M312.32,103.7v-1.35
		c-1-0.26-2.33-0.54-4.04-0.54c-2.52,0-3.92,1.12-3.92,2.78v0.05c0,1.73,1.63,2.73,3.46,2.73
		C310.24,107.36,312.32,105.87,312.32,103.7z"/>
	<path class="st0" d="M317.68,91.6c0-0.33,0.23-0.58,0.56-0.58s0.58,0.26,0.58,0.58v16.06c0,0.35-0.23,0.58-0.56,0.58
		s-0.58-0.23-0.58-0.58V91.6z"/>
	<path class="st0" d="M333.3,107.67c0,0.33-0.23,0.58-0.56,0.58s-0.58-0.23-0.58-0.58v-1.73c-0.79,1.4-2.12,2.5-4.3,2.5
		c-3.01,0-4.76-2.05-4.76-4.9v-6.79c0-0.35,0.23-0.58,0.56-0.58s0.58,0.23,0.58,0.58v6.58c0,2.45,1.38,4.06,3.78,4.06
		c2.33,0,4.13-1.77,4.13-4.25v-6.4c0-0.35,0.23-0.58,0.56-0.58s0.58,0.23,0.58,0.58v10.93H333.3z"/>
	<path class="st0" d="M342.65,108.44c-3.13,0-5.84-2.5-5.84-6.21v-0.05c0-3.46,2.43-6.21,5.65-6.21c3.34,0,5.46,2.75,5.46,6.16
		c0,0.28-0.28,0.54-0.56,0.54h-9.34c0.21,2.96,2.33,4.69,4.67,4.69c1.7,0,2.89-0.7,3.85-1.63c0.09-0.09,0.21-0.16,0.37-0.16
		c0.3,0,0.56,0.23,0.56,0.54c0,0.12-0.05,0.26-0.19,0.4C346.13,107.67,344.8,108.44,342.65,108.44z M346.69,101.64
		c-0.16-2.4-1.54-4.62-4.27-4.62c-2.36,0-4.18,1.98-4.39,4.62H346.69z"/>
	<path class="st0" d="M357.45,102.25v-0.05c0-3.34,2.59-6.23,6.14-6.23c3.52,0,6.09,2.85,6.09,6.19v0.05c0,3.34-2.59,6.23-6.14,6.23
		C360.02,108.44,357.45,105.59,357.45,102.25z M368.44,102.25v-0.05c0-2.87-2.15-5.16-4.9-5.16c-2.83,0-4.86,2.31-4.86,5.11v0.05
		c0,2.87,2.15,5.16,4.9,5.16C366.41,107.36,368.44,105.05,368.44,102.25z"/>
	<path class="st0" d="M373.9,97.3h-1.28c-0.3,0-0.54-0.23-0.54-0.54c0-0.28,0.26-0.51,0.54-0.51h1.28v-1.17
		c0-1.35,0.37-2.43,1.05-3.1c0.61-0.61,1.45-0.93,2.5-0.93c0.58,0,1.03,0.07,1.42,0.16c0.26,0.05,0.44,0.28,0.44,0.54
		c0,0.33-0.3,0.56-0.65,0.49c-0.37-0.07-0.77-0.14-1.21-0.14c-1.63,0-2.4,0.98-2.4,3.01v1.14h3.71c0.3,0,0.54,0.23,0.54,0.54
		c0,0.28-0.26,0.51-0.54,0.51h-3.71v10.37c0,0.33-0.23,0.58-0.56,0.58s-0.58-0.26-0.58-0.58V97.3H373.9z"/>
	<path class="st0" d="M387.88,106.85c-0.09-0.07-0.21-0.26-0.21-0.44c0-0.3,0.26-0.56,0.56-0.56c0.14,0,0.28,0.05,0.37,0.12
		c1.24,0.89,2.54,1.35,3.97,1.35c1.61,0,2.87-0.89,2.87-2.26V105c0-1.4-1.49-1.92-3.15-2.38c-1.94-0.56-4.09-1.14-4.09-3.27V99.3
		c0-1.92,1.61-3.29,3.92-3.29c1.28,0,2.71,0.42,3.85,1.07c0.14,0.09,0.3,0.26,0.3,0.51c0,0.3-0.26,0.56-0.56,0.56
		c-0.14,0-0.26-0.05-0.33-0.09c-1.03-0.61-2.17-0.98-3.32-0.98c-1.63,0-2.71,0.89-2.71,2.08v0.05c0,1.33,1.61,1.82,3.32,2.31
		c1.91,0.54,3.92,1.24,3.92,3.34v0.05c0,2.12-1.82,3.48-4.11,3.48C390.89,108.39,389.09,107.76,387.88,106.85z"/>
	<path class="st0" d="M405.27,108.44c-3.13,0-5.84-2.5-5.84-6.21v-0.05c0-3.46,2.43-6.21,5.65-6.21c3.34,0,5.46,2.75,5.46,6.16
		c0,0.28-0.28,0.54-0.56,0.54h-9.34c0.21,2.96,2.33,4.69,4.67,4.69c1.7,0,2.89-0.7,3.85-1.63c0.09-0.09,0.21-0.16,0.37-0.16
		c0.3,0,0.56,0.23,0.56,0.54c0,0.12-0.05,0.26-0.19,0.4C408.75,107.67,407.42,108.44,405.27,108.44z M409.31,101.64
		c-0.16-2.4-1.54-4.62-4.27-4.62c-2.36,0-4.18,1.98-4.39,4.62H409.31z"/>
	<path class="st0" d="M413.88,96.74c0-0.33,0.23-0.58,0.56-0.58s0.58,0.23,0.58,0.58v1.73c0.79-1.4,2.12-2.5,4.29-2.5
		c3.01,0,4.76,2.05,4.76,4.9v6.79c0,0.35-0.23,0.58-0.56,0.58s-0.58-0.23-0.58-0.58v-6.58c0-2.45-1.38-4.06-3.78-4.06
		c-2.33,0-4.13,1.77-4.13,4.25v6.4c0,0.35-0.23,0.58-0.56,0.58s-0.58-0.23-0.58-0.58L413.88,96.74L413.88,96.74z"/>
	<path class="st0" d="M427.42,106.85c-0.09-0.07-0.21-0.26-0.21-0.44c0-0.3,0.26-0.56,0.56-0.56c0.14,0,0.28,0.05,0.37,0.12
		c1.24,0.89,2.54,1.35,3.97,1.35c1.61,0,2.87-0.89,2.87-2.26V105c0-1.4-1.49-1.92-3.15-2.38c-1.94-0.56-4.09-1.14-4.09-3.27V99.3
		c0-1.92,1.61-3.29,3.92-3.29c1.28,0,2.71,0.42,3.85,1.07c0.14,0.09,0.3,0.26,0.3,0.51c0,0.3-0.26,0.56-0.56,0.56
		c-0.14,0-0.26-0.05-0.33-0.09c-1.03-0.61-2.17-0.98-3.32-0.98c-1.63,0-2.71,0.89-2.71,2.08v0.05c0,1.33,1.61,1.82,3.32,2.31
		c1.91,0.54,3.92,1.24,3.92,3.34v0.05c0,2.12-1.82,3.48-4.11,3.48C430.43,108.39,428.63,107.76,427.42,106.85z"/>
	<path class="st0" d="M439.81,92.16c0-0.4,0.3-0.7,0.7-0.7c0.4,0,0.72,0.3,0.72,0.7v0.4c0,0.4-0.33,0.7-0.72,0.7
		c-0.4,0-0.7-0.3-0.7-0.7V92.16z M439.95,96.74c0-0.33,0.23-0.58,0.56-0.58s0.58,0.23,0.58,0.58v10.93c0,0.35-0.23,0.58-0.56,0.58
		s-0.58-0.23-0.58-0.58V96.74z"/>
	<path class="st0" d="M446.23,105.1v-7.8h-1.28c-0.28,0-0.54-0.26-0.54-0.54s0.26-0.51,0.54-0.51h1.28v-3.32
		c0-0.33,0.23-0.58,0.56-0.58s0.58,0.26,0.58,0.58v3.32h3.74c0.28,0,0.54,0.26,0.54,0.54s-0.26,0.51-0.54,0.51h-3.74v7.68
		c0,1.7,1,2.31,2.38,2.31c0.82,0,1.19-0.23,1.35-0.23c0.26,0,0.51,0.23,0.51,0.51c0,0.23-0.14,0.4-0.37,0.49
		c-0.47,0.16-1,0.3-1.68,0.3C447.72,108.37,446.23,107.36,446.23,105.1z"/>
	<path class="st0" d="M454.96,92.16c0-0.4,0.3-0.7,0.7-0.7c0.4,0,0.72,0.3,0.72,0.7v0.4c0,0.4-0.33,0.7-0.72,0.7
		c-0.4,0-0.7-0.3-0.7-0.7V92.16z M455.1,96.74c0-0.33,0.23-0.58,0.56-0.58s0.58,0.23,0.58,0.58v10.93c0,0.35-0.23,0.58-0.56,0.58
		s-0.58-0.23-0.58-0.58V96.74z"/>
	<path class="st0" d="M465.39,108.32h-0.05c-0.33,0-0.51-0.19-0.65-0.49l-4.79-10.74c-0.05-0.12-0.09-0.23-0.09-0.35
		c0-0.33,0.26-0.58,0.61-0.58c0.35,0,0.49,0.21,0.61,0.47l4.34,10.25l4.41-10.3c0.09-0.23,0.26-0.42,0.56-0.42
		c0.33,0,0.58,0.26,0.58,0.58c0,0.12-0.02,0.19-0.07,0.3l-4.81,10.79C465.9,108.13,465.72,108.32,465.39,108.32z"/>
	<path class="st0" d="M478.65,108.44c-3.13,0-5.84-2.5-5.84-6.21v-0.05c0-3.46,2.43-6.21,5.65-6.21c3.34,0,5.46,2.75,5.46,6.16
		c0,0.28-0.28,0.54-0.56,0.54h-9.34c0.21,2.96,2.33,4.69,4.67,4.69c1.7,0,2.89-0.7,3.85-1.63c0.09-0.09,0.21-0.16,0.37-0.16
		c0.3,0,0.56,0.23,0.56,0.54c0,0.12-0.05,0.26-0.19,0.4C482.12,107.67,480.79,108.44,478.65,108.44z M482.68,101.64
		c-0.16-2.4-1.54-4.62-4.27-4.62c-2.36,0-4.18,1.98-4.39,4.62H482.68z"/>
	<path class="st0" d="M505.32,107.67c0,0.35-0.23,0.58-0.56,0.58s-0.58-0.23-0.58-0.58v-2.17c-1.03,1.56-2.54,2.94-4.9,2.94
		c-2.87,0-5.79-2.31-5.79-6.19v-0.05c0-3.88,2.92-6.23,5.79-6.23c2.38,0,3.92,1.35,4.9,2.85V91.6c0-0.35,0.23-0.58,0.56-0.58
		s0.58,0.23,0.58,0.58V107.67z M494.72,102.16v0.05c0,3.13,2.17,5.14,4.67,5.14c2.47,0,4.86-2.08,4.86-5.11v-0.05
		c0-3.06-2.38-5.11-4.86-5.11C496.8,97.07,494.72,98.96,494.72,102.16z"/>
	<path class="st0" d="M508.68,104.7v-0.05c0-2.47,2.12-3.88,5.21-3.88c1.66,0,2.8,0.21,3.95,0.51v-0.51c0-2.41-1.47-3.64-3.92-3.64
		c-1.31,0-2.4,0.33-3.38,0.79c-0.09,0.05-0.19,0.07-0.26,0.07c-0.28,0-0.54-0.26-0.54-0.54s0.21-0.47,0.33-0.51
		c1.21-0.54,2.4-0.89,3.92-0.89c1.61,0,2.89,0.44,3.76,1.31c0.79,0.79,1.21,1.89,1.21,3.36v6.93c0,0.35-0.23,0.58-0.56,0.58
		s-0.56-0.23-0.56-0.58v-1.49c-0.82,1.14-2.29,2.26-4.55,2.26C511.06,108.44,508.68,107.17,508.68,104.7z M517.85,103.7v-1.35
		c-1-0.26-2.33-0.54-4.04-0.54c-2.52,0-3.92,1.12-3.92,2.78v0.05c0,1.73,1.63,2.73,3.46,2.73
		C515.78,107.36,517.85,105.87,517.85,103.7z"/>
	<path class="st0" d="M523.57,105.1v-7.8h-1.28c-0.28,0-0.54-0.26-0.54-0.54s0.26-0.51,0.54-0.51h1.28v-3.32
		c0-0.33,0.23-0.58,0.56-0.58s0.58,0.26,0.58,0.58v3.32h3.74c0.28,0,0.54,0.26,0.54,0.54s-0.26,0.51-0.54,0.51h-3.74v7.68
		c0,1.7,1,2.31,2.38,2.31c0.82,0,1.19-0.23,1.35-0.23c0.26,0,0.51,0.23,0.51,0.51c0,0.23-0.14,0.4-0.37,0.49
		c-0.47,0.16-1,0.3-1.68,0.3C525.06,108.37,523.57,107.36,523.57,105.1z"/>
	<path class="st0" d="M531.29,104.7v-0.05c0-2.47,2.12-3.88,5.21-3.88c1.66,0,2.8,0.21,3.95,0.51v-0.51c0-2.41-1.47-3.64-3.92-3.64
		c-1.31,0-2.4,0.33-3.38,0.79c-0.09,0.05-0.19,0.07-0.26,0.07c-0.28,0-0.54-0.26-0.54-0.54s0.21-0.47,0.33-0.51
		c1.21-0.54,2.4-0.89,3.92-0.89c1.61,0,2.89,0.44,3.76,1.31c0.79,0.79,1.21,1.89,1.21,3.36v6.93c0,0.35-0.23,0.58-0.56,0.58
		s-0.56-0.23-0.56-0.58v-1.49c-0.82,1.14-2.29,2.26-4.55,2.26C533.68,108.44,531.29,107.17,531.29,104.7z M540.47,103.7v-1.35
		c-1-0.26-2.33-0.54-4.04-0.54c-2.52,0-3.92,1.12-3.92,2.78v0.05c0,1.73,1.63,2.73,3.46,2.73
		C538.39,107.36,540.47,105.87,540.47,103.7z"/>
	<path class="st0" d="M546.18,106.08c0.44,0,0.77,0.33,0.77,0.77v0.63c0,0.44-0.33,0.77-0.77,0.77s-0.77-0.33-0.77-0.77v-0.63
		C545.41,106.4,545.74,106.08,546.18,106.08z"/>
	<path class="st0" d="M557.27,107.36l6.98-15.13c0.16-0.35,0.4-0.58,0.82-0.58h0.05c0.42,0,0.65,0.23,0.82,0.58l6.96,15.08
		c0.07,0.14,0.09,0.26,0.09,0.37c0,0.3-0.26,0.56-0.58,0.56c-0.28,0-0.49-0.21-0.61-0.47l-1.91-4.2h-9.64l-1.91,4.23
		c-0.12,0.28-0.3,0.44-0.58,0.44c-0.3,0-0.56-0.23-0.56-0.51C557.18,107.64,557.2,107.5,557.27,107.36z M569.36,102.48l-4.3-9.46
		l-4.32,9.46H569.36z"/>
	<path class="st0" d="M576.41,105.1v-7.8h-1.28c-0.28,0-0.54-0.26-0.54-0.54s0.26-0.51,0.54-0.51h1.28v-3.32
		c0-0.33,0.23-0.58,0.56-0.58s0.58,0.26,0.58,0.58v3.32h3.74c0.28,0,0.54,0.26,0.54,0.54s-0.26,0.51-0.54,0.51h-3.74v7.68
		c0,1.7,1,2.31,2.38,2.31c0.82,0,1.19-0.23,1.35-0.23c0.26,0,0.51,0.23,0.51,0.51c0,0.23-0.14,0.4-0.37,0.49
		c-0.47,0.16-1,0.3-1.68,0.3C577.9,108.37,576.41,107.36,576.41,105.1z"/>
	<path class="st0" d="M591.34,106.85c-0.09-0.07-0.21-0.26-0.21-0.44c0-0.3,0.26-0.56,0.56-0.56c0.14,0,0.28,0.05,0.37,0.12
		c1.24,0.89,2.54,1.35,3.97,1.35c1.61,0,2.87-0.89,2.87-2.26V105c0-1.4-1.49-1.92-3.15-2.38c-1.94-0.56-4.09-1.14-4.09-3.27V99.3
		c0-1.92,1.61-3.29,3.92-3.29c1.28,0,2.71,0.42,3.85,1.07c0.14,0.09,0.3,0.26,0.3,0.51c0,0.3-0.26,0.56-0.56,0.56
		c-0.14,0-0.26-0.05-0.33-0.09c-1.03-0.61-2.17-0.98-3.32-0.98c-1.63,0-2.71,0.89-2.71,2.08v0.05c0,1.33,1.61,1.82,3.32,2.31
		c1.91,0.54,3.92,1.24,3.92,3.34v0.05c0,2.12-1.82,3.48-4.11,3.48C594.35,108.39,592.56,107.76,591.34,106.85z"/>
	<path class="st0" d="M602.89,102.25v-0.05c0-3.34,2.66-6.23,6.07-6.23c2.05,0,3.41,0.89,4.48,1.89c0.09,0.09,0.16,0.26,0.16,0.42
		c0,0.33-0.26,0.58-0.58,0.58c-0.14,0-0.3-0.05-0.4-0.14c-0.96-0.91-2.08-1.68-3.69-1.68c-2.71,0-4.81,2.26-4.81,5.11v0.05
		c0,2.87,2.17,5.16,4.9,5.16c1.54,0,2.78-0.75,3.74-1.7c0.09-0.09,0.21-0.19,0.37-0.19c0.28,0,0.56,0.28,0.56,0.56
		c0,0.12-0.05,0.26-0.14,0.35c-1.19,1.21-2.57,2.05-4.6,2.05C605.53,108.44,602.89,105.59,602.89,102.25z"/>
	<path class="st0" d="M616.06,104.7v-0.05c0-2.47,2.12-3.88,5.21-3.88c1.66,0,2.8,0.21,3.95,0.51v-0.51c0-2.41-1.47-3.64-3.92-3.64
		c-1.31,0-2.4,0.33-3.38,0.79c-0.09,0.05-0.19,0.07-0.26,0.07c-0.28,0-0.54-0.26-0.54-0.54s0.21-0.47,0.33-0.51
		c1.21-0.54,2.4-0.89,3.92-0.89c1.61,0,2.89,0.44,3.76,1.31c0.79,0.79,1.21,1.89,1.21,3.36v6.93c0,0.35-0.23,0.58-0.56,0.58
		s-0.56-0.23-0.56-0.58v-1.49c-0.82,1.14-2.29,2.26-4.55,2.26C618.44,108.44,616.06,107.17,616.06,104.7z M625.23,103.7v-1.35
		c-1-0.26-2.33-0.54-4.04-0.54c-2.52,0-3.92,1.12-3.92,2.78v0.05c0,1.73,1.63,2.73,3.46,2.73
		C623.15,107.36,625.23,105.87,625.23,103.7z"/>
	<path class="st0" d="M630.6,91.6c0-0.33,0.23-0.58,0.56-0.58s0.58,0.26,0.58,0.58v16.06c0,0.35-0.23,0.58-0.56,0.58
		s-0.58-0.23-0.58-0.58V91.6z"/>
	<path class="st0" d="M641.26,108.44c-3.13,0-5.84-2.5-5.84-6.21v-0.05c0-3.46,2.43-6.21,5.65-6.21c3.34,0,5.46,2.75,5.46,6.16
		c0,0.28-0.28,0.54-0.56,0.54h-9.34c0.21,2.96,2.33,4.69,4.67,4.69c1.7,0,2.89-0.7,3.85-1.63c0.09-0.09,0.21-0.16,0.37-0.16
		c0.3,0,0.56,0.23,0.56,0.54c0,0.12-0.05,0.26-0.19,0.4C644.74,107.67,643.41,108.44,641.26,108.44z M645.3,101.64
		c-0.16-2.4-1.54-4.62-4.27-4.62c-2.36,0-4.18,1.98-4.39,4.62H645.3z"/>
	<path class="st0" d="M650.15,106.08c0.44,0,0.77,0.33,0.77,0.77v0.63c0,0.44-0.33,0.77-0.77,0.77s-0.77-0.33-0.77-0.77v-0.63
		C649.38,106.4,649.71,106.08,650.15,106.08z"/>
</g>
<g>
	<path class="st0" d="M123.29,23.32c2.14,0,3.89-1.75,3.89-3.89v-0.02c0-2.14-1.75-3.89-3.89-3.89H18.01
		c-2.14,0-3.89,1.75-3.89,3.89v0.02c0,2.14,1.75,3.89,3.89,3.89h48.74v81.29c0,1.95,1.59,3.54,3.54,3.54h0.77
		c1.95,0,3.54-1.59,3.54-3.54V23.32H123.29z"/>
	<path class="st0" d="M54.82,31.13h-37.1c-2.14,0-3.9,1.75-3.9,3.9l0,0c0,2.14,1.75,3.9,3.9,3.9h32.73v26.51h-28.7
		c-2.04,0-3.71,1.67-3.71,3.71v0.37c0,2.04,1.67,3.71,3.71,3.71h28.7v27.05H17.93c-2.14,0-3.89,1.75-3.89,3.89v0.02
		c0,2.14,1.75,3.89,3.89,3.89h36.9c1.49,0,2.79-0.85,3.44-2.09c0.41-0.65,0.65-1.42,0.65-2.25V35.46c0-0.88-0.27-1.7-0.74-2.38
		C57.51,31.92,56.25,31.13,54.82,31.13z"/>
	<path class="st0" d="M123.6,38.92c2.14,0,3.9-1.75,3.9-3.9l0,0c0-2.14-1.75-3.9-3.9-3.9H86.5c-1.43,0-2.69,0.79-3.37,1.95
		c-0.46,0.68-0.74,1.5-0.74,2.38v68.27c0,0.82,0.24,1.59,0.65,2.25c0.65,1.24,1.95,2.09,3.44,2.09h36.9c2.14,0,3.89-1.75,3.89-3.89
		v-0.02c0-2.14-1.75-3.89-3.89-3.89H90.87V73.22h28.7c2.04,0,3.71-1.67,3.71-3.71v-0.37c0-2.04-1.67-3.71-3.71-3.71h-28.7V38.92
		H123.6z"/>
</g>
<path class="st0" d="M146.49,18.28c0-1.13,0.97-2.11,2.11-2.11c1.13,0,2.11,0.97,2.11,2.11v53.13c0,1.13-0.97,2.11-2.11,2.11
	c-1.13,0-2.11-0.97-2.11-2.11V18.28z"/>
<path class="st0" d="M170.55,18.37c0-1.13,0.97-2.11,2.11-2.11h0.65c0.89,0,1.54,0.49,2.11,1.21l38.23,48.52V18.2
	c0-1.13,0.89-2.02,2.03-2.02c1.13,0,2.02,0.89,2.02,2.02v53.46c0,0.97-0.73,1.78-1.7,1.78h-0.32c-0.81,0-1.46-0.57-2.11-1.38
	l-38.97-49.4V71.5c0,1.13-0.89,2.03-2.02,2.03s-2.02-0.89-2.02-2.03L170.55,18.37L170.55,18.37z"/>
<path class="st0" d="M252.68,20.39h-18.14c-1.05,0-1.94-0.89-1.94-1.94s0.89-1.94,1.94-1.94h40.5c1.05,0,1.94,0.89,1.94,1.94
	s-0.89,1.94-1.94,1.94H256.9v51.03c0,1.13-0.97,2.11-2.11,2.11c-1.13,0-2.11-0.97-2.11-2.11L252.68,20.39L252.68,20.39z"/>
<path class="st0" d="M291.88,71.09V18.61c0-1.13,0.97-2.11,2.11-2.11h36.61c1.05,0,1.94,0.89,1.94,1.94s-0.89,1.94-1.94,1.94h-34.5
	v22.27h30.86c1.05,0,1.94,0.89,1.94,1.94s-0.89,1.94-1.94,1.94H296.1v22.76H331c1.05,0,1.94,0.89,1.94,1.94s-0.89,1.94-1.94,1.94
	h-37.01C292.86,73.2,291.88,72.23,291.88,71.09z"/>
<path class="st0" d="M346.07,45.01v-0.16c0-15.31,11.1-29.32,28.02-29.32c8.5,0,14.09,2.35,19.36,6.32c0.49,0.4,0.81,0.97,0.81,1.7
	c0,1.13-0.97,2.11-2.11,2.11c-0.32,0-0.81-0.16-1.3-0.57c-4.37-3.4-9.15-5.75-17.01-5.75c-13.77,0-23.41,11.66-23.41,25.35v0.16
	c0,14.66,9.15,25.59,24.3,25.59c7.21,0,13.93-3,18.06-6.48V47.69h-17.66c-1.05,0-1.94-0.89-1.94-1.94s0.89-1.94,1.94-1.94h19.6
	c1.13,0,2.11,0.97,2.11,2.11v18.55c0,0.81-0.57,1.7-1.46,2.43c-5.35,4.13-12.39,7.29-20.82,7.29
	C356.68,74.17,346.07,60.97,346.07,45.01z"/>
<path class="st0" d="M414.52,18.61c0-1.13,0.97-2.11,2.11-2.11h21.71c6.97,0,12.55,2.19,15.96,5.59c2.67,2.67,4.29,6.48,4.29,10.53
	v0.16c0,9.48-7.05,14.9-16.6,16.2l16.12,20.9c0.41,0.49,0.65,0.97,0.65,1.46c0,1.13-1.05,2.19-2.19,2.19
	c-0.81,0-1.38-0.49-1.86-1.13L437.3,49.72h-18.55v21.71c0,1.13-0.97,2.11-2.11,2.11s-2.11-0.97-2.11-2.11V18.61H414.52z
	 M437.84,45.9c9.48,0,16.52-4.78,16.52-12.96v-0.16c0-7.61-5.99-12.39-16.28-12.39h-19.36V45.9H437.84z"/>
<path class="st0" d="M476.08,18.28c0-1.13,0.97-2.11,2.11-2.11c1.13,0,2.11,0.97,2.11,2.11v53.13c0,1.13-0.97,2.11-2.11,2.11
	c-1.13,0-2.11-0.97-2.11-2.11V18.28z"/>
<path class="st0" d="M514.09,24.12h-15.82c-1.62,0-3-2.3-3-3.92s1.38-3.9,3-3.9h39.36c1.62,0,3,2.28,3,3.9c0,1.62-1.38,3.92-3,3.92
	h-15.16v46.04c0,1.78-2.42,3.24-4.2,3.24s-4.19-1.46-4.19-3.24V24.12H514.09z"/>
<path class="st0" d="M554.65,69.76V19.54c0-1.78,1.46-3.24,3.16-3.24h35.23c1.62,0,3.32,2.28,3.32,3.9c0,1.62-1.7,3.87-3.32,3.87
	H563.1v17.42h26.3c1.62,0,2.92,2.13,2.92,3.67c0,1.62-1.3,4.11-2.92,4.11h-26.3v15.97h30.35c1.62,0,2.92,2.25,2.92,3.87
	s-1.3,3.89-2.92,3.89H557.8C556.1,73,554.65,71.54,554.65,69.76z"/>
<path class="st0" d="M611.35,69.76V19.54c0-1.78,1.46-3.24,3.16-3.24h35.23c1.62,0,3.32,2.28,3.32,3.9c0,1.62-1.7,3.87-3.32,3.87
	H619.8v17.42h26.3c1.62,0,2.92,2.13,2.92,3.67c0,1.62-1.3,4.11-2.92,4.11h-26.3v15.97h30.35c1.62,0,2.92,2.25,2.92,3.87
	s-1.3,3.89-2.92,3.89H614.5C612.8,73,611.35,71.54,611.35,69.76z"/>
</svg>
