<svg xmlns="http://www.w3.org/2000/svg" xmlns:xlink="http://www.w3.org/1999/xlink" viewBox="0 0 10.06 29.46"><defs><linearGradient id="linear-gradient" x1="5.03" y1="29.46" x2="5.03" gradientUnits="userSpaceOnUse"><stop offset="0" stop-color="#75e6da" stop-opacity="0"/><stop offset="0" stop-color="#6ed9d3"/><stop offset="0.09" stop-color="#6ccbcb"/><stop offset="0.31" stop-color="#69b0bc"/><stop offset="0.53" stop-color="#679db2"/><stop offset="0.76" stop-color="#6592ab"/><stop offset="1" stop-color="#658ea9"/></linearGradient><linearGradient id="linear-gradient-2" x1="5.03" y1="29.46" x2="5.03" y2="0" xlink:href="#linear-gradient"/></defs><g id="Layer_2" data-name="Layer 2"><g id="BG"><line x1="5.03" y1="29.46" x2="5.03" y2="1.2" style="fill:none;stroke-miterlimit:10;stroke:url(#linear-gradient)"/><path d="M9.83,8a.49.49,0,0,1-.69-.16L5,1.43.92,7.88A.49.49,0,0,1,.23,8a.5.5,0,0,1-.15-.69L4.61.23a.5.5,0,0,1,.84,0L10,7.35a.42.42,0,0,1,.08.26A.51.51,0,0,1,9.83,8Z" style="fill:url(#linear-gradient-2)"/></g></g></svg>